# Blender 3.4.1
# www.blender.org
o yaw
v 4.000000 1.000001 -0.000000
v 4.000000 4.000000 -0.000000
v 3.464102 1.000001 2.000000
v 3.655206 3.796194 1.286785
v 2.000000 1.000001 3.464102
v 2.651780 3.637733 2.287268
v 0.000000 1.000001 4.000000
v 0.000000 3.552855 2.823167
v -2.000000 1.000001 3.464102
v -2.651780 3.637733 2.287268
v -3.464102 1.000001 2.000000
v -3.655206 3.796194 1.286785
v -4.000000 1.000001 0.000000
v -4.000000 4.000000 0.000000
v -3.464102 1.000001 -2.000000
v -3.464102 4.316770 -2.000000
v -2.000000 1.000001 -3.464102
v -2.000000 4.548661 -3.464102
v -0.000000 1.000001 -4.000000
v 0.000000 4.633538 -4.000000
v 2.000000 1.000001 -3.464102
v 2.000000 4.548661 -3.464102
v 3.464102 1.000001 -2.000000
v 3.464102 4.316770 -2.000000
v 1.619363 4.273101 -2.105967
v -1.619363 4.273101 -2.105967
v 1.619363 3.766453 1.092885
v -1.619363 3.766453 1.092885
v 1.619363 3.918631 1.122931
v 1.619363 4.425280 -2.075921
v -1.619363 4.425280 -2.075921
v -1.619363 3.918631 1.122931
vn 0.9659 -0.0000 0.2588
vn 0.6956 0.1374 0.7052
vn 0.2007 0.3836 0.9014
vn -0.2007 0.3836 0.9014
vn -0.6956 0.1374 0.7052
vn -0.9659 -0.0000 0.2588
vn -0.9659 -0.0000 -0.2588
vn -0.7071 -0.0000 -0.7071
vn -0.2588 -0.0000 -0.9659
vn 0.2588 -0.0000 -0.9659
vn -0.0000 0.9877 0.1564
vn 0.7071 -0.0000 -0.7071
vn 0.9659 -0.0000 -0.2588
vn -0.0000 -1.0000 -0.0000
vn -0.0000 -0.9877 -0.1564
vn 1.0000 -0.0000 -0.0000
vn -0.0000 -0.1937 0.9811
vn -0.0000 0.1937 -0.9811
vn -1.0000 -0.0000 -0.0000
vt 1.000000 0.500000
vt 0.000000 0.500000
vt 0.750000 0.490000
vt 1.000000 1.000000
vt 0.250000 0.490000
vt 0.000000 1.000000
vt 0.916667 0.500000
vt 0.870000 0.457846
vt 0.943051 0.960843
vt 0.343004 0.469312
vt 0.833333 0.500000
vt 0.957846 0.370000
vt 0.833333 1.000000
vt 0.457846 0.370000
vt 0.750000 0.500000
vt 0.990000 0.250000
vt 0.750000 1.000000
vt 0.490000 0.250000
vt 0.666667 0.500000
vt 0.957846 0.130000
vt 0.666667 1.000000
vt 0.457846 0.130000
vt 0.583333 0.500000
vt 0.870000 0.042154
vt 0.556949 0.960843
vt 0.343004 0.030688
vt 0.500000 0.500000
vt 0.750000 0.010000
vt 0.500000 1.000000
vt 0.250000 0.010000
vt 0.416667 0.500000
vt 0.630000 0.042154
vt 0.416667 1.000000
vt 0.130000 0.042154
vt 0.333333 0.500000
vt 0.542154 0.130000
vt 0.333333 1.000000
vt 0.042154 0.130000
vt 0.250000 0.500000
vt 0.510000 0.250000
vt 0.250000 1.000000
vt 0.010000 0.250000
vt 0.166667 0.500000
vt 0.542154 0.370000
vt 0.042154 0.370000
vt 0.166667 1.000000
vt 0.083333 0.500000
vt 0.630000 0.457846
vt 0.130000 0.457846
vt 0.083333 1.000000
vt 0.000000 0.000000
vt 1.000000 0.000000
vt 0.000000 1.000000
vt 1.000000 1.000000
vt 0.000000 1.000000
vt 0.000000 0.000000
vt 1.000000 0.000000
vt 1.000000 1.000000
s 0
f 1/1/1 2/4/1 4/9/1 3/7/1
f 3/7/2 4/9/2 6/13/2 5/11/2
f 5/11/3 6/13/3 8/17/3 7/15/3
f 7/15/4 8/17/4 10/21/4 9/19/4
f 9/19/5 10/21/5 12/25/5 11/23/5
f 11/23/6 12/25/6 14/29/6 13/27/6
f 13/27/7 14/29/7 16/33/7 15/31/7
f 15/31/8 16/33/8 18/37/8 17/35/8
f 17/35/9 18/37/9 20/41/9 19/39/9
f 19/39/10 20/41/10 22/46/10 21/43/10
f 4/10/11 2/5/11 24/49/11 22/45/11 20/42/11 18/38/11 16/34/11 14/30/11 12/26/11 10/22/11 8/18/11 6/14/11
f 21/43/12 22/46/12 24/50/12 23/47/12
f 23/47/13 24/50/13 2/6/13 1/2/13
f 1/3/14 3/8/14 5/12/14 7/16/14 9/20/14 11/24/14 13/28/14 15/32/14 17/36/14 19/40/14 21/44/14 23/48/14
f 25/51/15 27/53/15 28/54/15 26/52/15
f 30/56/11 31/57/11 32/58/11 29/55/11
f 27/53/16 25/51/16 30/56/16 29/55/16
f 28/54/17 27/53/17 29/55/17 32/58/17
f 25/51/18 26/52/18 31/57/18 30/56/18
f 26/52/19 28/54/19 32/58/19 31/57/19
