# Blender 3.4.1
# www.blender.org
o ScrewBAxis1
v 3.380050 4.520129 4.155922
v 3.607842 5.003502 3.971558
v 3.607841 5.003502 5.574589
v 3.380050 4.520129 5.390229
v 4.164466 5.000000 5.574589
v 3.751912 4.305433 5.390229
v 4.164466 5.000000 3.971558
v 3.751912 4.305433 4.155922
v 2.669573 3.131967 4.155922
v 2.669573 3.131967 5.390228
v 3.041437 2.917271 5.390228
v 3.041438 2.917271 4.155922
v 2.479719 2.803135 3.932953
v 2.479719 2.803135 5.613190
v 2.851586 2.588438 5.613190
v 2.851586 2.588438 3.932953
v 1.138206 5.003502 5.574589
v 1.138206 5.003502 3.971558
v 1.366006 4.520129 4.155922
v 1.366006 4.520129 5.390228
v 0.581587 5.000000 5.574589
v 0.994139 4.305433 5.390228
v 0.581587 5.000000 3.971558
v 0.994139 4.305433 4.155922
v 2.076478 3.131967 4.155922
v 2.076477 3.131967 5.390228
v 1.704613 2.917271 5.390228
v 1.704613 2.917271 4.155922
v 2.266329 2.803135 3.932953
v 2.266329 2.803135 5.613190
v 1.894465 2.588438 5.613190
v 1.894465 2.588438 3.932953
v 2.308186 2.250633 0.000000
v 2.431499 2.037046 0.390770
v 2.554816 2.250633 0.390770
v 2.431496 2.464222 0.390770
v 2.184868 2.464222 0.390770
v 2.061556 2.250633 0.390770
v 2.184871 2.037046 0.390770
v 2.519582 1.884485 0.846420
v 2.730980 2.250633 0.846420
v 2.519580 2.616783 0.846420
v 2.096788 2.616783 0.846420
v 1.885393 2.250633 0.846420
v 2.096790 1.884485 0.846420
v 2.590044 1.762436 1.266327
v 2.871910 2.250633 1.266327
v 2.590048 2.738833 1.266327
v 2.026325 2.738833 1.266327
v 1.744461 2.250633 1.266327
v 2.026322 1.762436 1.266327
v 2.639790 1.676281 1.683296
v 2.971392 2.250633 1.683296
v 2.639787 2.824986 1.683296
v 1.976583 2.824986 1.683296
v 1.644982 2.250633 1.683296
v 1.976584 1.676281 1.683296
v 2.639788 1.676281 3.109780
v 2.971390 2.250633 3.109780
v 2.639787 2.824986 3.109780
v 1.976580 2.824986 3.109780
v 1.644981 2.250633 3.109780
v 1.976583 1.676281 3.109780
v 2.669933 1.624067 3.109780
v 3.031681 2.250633 3.109780
v 2.669933 2.877199 3.109780
v 1.946435 2.877199 3.109780
v 1.584690 2.250633 3.109780
v 1.946438 1.624067 3.109780
v 2.669933 1.624067 3.417023
v 3.031681 2.250633 3.417023
v 2.669933 2.877199 3.417023
v 1.946435 2.877199 3.417023
v 1.584690 2.250633 3.417023
v 1.946438 1.624067 3.417023
v 2.618255 1.713577 3.417023
v 2.928326 2.250633 3.417023
v 2.618256 2.787689 3.417023
v 1.998116 2.787689 3.417023
v 1.688046 2.250633 3.417023
v 1.998115 1.713577 3.417023
v 2.665954 1.688327 5.585716
v 3.023731 2.308006 5.585716
v 2.665956 2.927686 5.585716
v 1.950412 2.927686 5.585716
v 1.592642 2.308007 5.585716
v 1.950409 1.688327 5.585716
v 2.665954 1.688327 6.870865
v 3.023731 2.308006 6.870865
v 2.665956 2.927686 6.870865
v 1.950412 2.927686 6.870865
v 1.592642 2.308007 6.870865
v 1.950409 1.688327 6.870865
v 2.491656 1.990221 7.318371
v 2.675131 2.308007 7.318371
v 2.491658 2.625792 7.318371
v 2.124713 2.625792 7.318371
v 1.941240 2.308007 7.318371
v 2.124711 1.990221 7.318371
v 2.491654 1.990221 12.349678
v 2.675128 2.308007 12.349678
v 2.491656 2.625791 12.349678
v 2.124709 2.625792 12.349678
v 1.941238 2.308007 12.349678
v 2.124708 1.990221 12.349678
v 2.564187 1.864585 12.349678
v 2.820201 2.308006 12.349678
v 2.564191 2.751427 12.349678
v 2.052172 2.751427 12.349678
v 1.796165 2.308007 12.349678
v 2.052171 1.864586 12.349678
v 2.673908 1.674549 13.027134
v 3.039638 2.308006 13.027134
v 2.673908 2.941465 13.027134
v 1.942453 2.941466 13.027134
v 1.576728 2.308007 13.027134
v 1.942454 1.674549 13.027134
v 2.630219 1.739116 13.704594
v 2.952253 2.296902 13.704594
v 2.630219 2.854685 13.704594
v 1.986143 2.854685 13.704594
v 1.664106 2.296902 13.704594
v 1.986143 1.739116 13.704594
v 2.308183 2.308006 15.323391
v 1.487809 2.308006 15.323391
v 1.897992 3.018472 15.323391
v 1.897995 1.597542 15.323391
v 2.718369 1.597541 15.323391
v 3.128558 2.308006 15.323391
v 2.718366 3.018473 15.323391
vn -0.9170 0.3985 0.0182
vn -0.8855 0.4647 0.0008
vn -0.8853 0.4650 -0.0048
vn -0.9046 0.4263 -0.0066
vn -0.0655 -0.2729 0.9598
vn -0.0333 -0.1667 0.9854
vn -0.0143 -0.1043 0.9944
vn -0.0835 -0.2664 0.9602
vn 0.8489 -0.5286 -0.0048
vn 0.8571 -0.5152 -0.0000
vn 0.8555 -0.5177 0.0126
vn 0.8598 -0.5107 0.0036
vn -0.0645 -0.2698 -0.9608
vn -0.0229 -0.0957 -0.9951
vn -0.0367 -0.1658 -0.9855
vn -0.0280 -0.2790 -0.9599
vn -0.8964 0.4425 -0.0255
vn -0.9026 0.4302 0.0137
vn 0.1632 0.2611 0.9514
vn 0.1547 0.2732 0.9494
vn 0.8519 -0.5229 0.0285
vn 0.9017 -0.4323 -0.0000
vn 0.1099 0.1904 -0.9755
vn 0.1487 0.2623 -0.9535
vn -0.8660 0.5000 -0.0000
vn 0.8660 -0.5000 -0.0000
vn -0.5000 -0.8660 -0.0000
vn 0.2532 0.4385 0.8623
vn 0.0063 0.9997 -0.0215
vn 0.0027 1.0000 -0.0000
vn 0.0154 0.9993 0.0343
vn 0.0129 0.9999 -0.0000
vn 0.2532 0.4385 -0.8623
vn 0.9071 0.4194 0.0347
vn 0.9072 0.4206 -0.0022
vn 0.9105 0.4134 -0.0000
vn 0.8855 0.4647 0.0008
vn 0.0559 -0.2671 0.9621
vn 0.0730 -0.2841 0.9560
vn 0.0497 -0.1609 0.9857
vn 0.0218 -0.1161 0.9930
vn -0.8596 -0.5106 -0.0215
vn -0.8580 -0.5137 0.0008
vn -0.8555 -0.5177 0.0126
vn -0.8905 -0.4549 0.0039
vn 0.0662 -0.2668 -0.9615
vn 0.0659 -0.3020 -0.9510
vn 0.0367 -0.1658 -0.9855
vn 0.0229 -0.0957 -0.9951
vn 0.9026 0.4302 0.0137
vn 0.8513 0.5247 -0.0000
vn -0.0857 0.2444 0.9659
vn -0.1631 0.2611 0.9514
vn -0.8676 -0.4945 0.0525
vn -0.8752 -0.4804 -0.0563
vn -0.1072 0.1856 -0.9768
vn -0.0914 0.2548 -0.9627
vn 0.8660 0.5000 -0.0000
vn -0.8660 -0.5000 -0.0000
vn 0.5000 -0.8660 -0.0000
vn -0.2532 0.4385 0.8623
vn 0.0152 0.9999 -0.0000
vn -0.0063 1.0000 -0.0066
vn -0.0405 0.9991 0.0092
vn -0.0063 1.0000 0.0036
vn -0.2532 0.4385 -0.8623
vn 0.8935 -0.0000 -0.4492
vn 0.4467 -0.7738 -0.4492
vn -0.0000 -0.0000 -1.0000
vn 0.4467 0.7738 -0.4492
vn -0.4468 0.7737 -0.4492
vn -0.8935 -0.0000 -0.4492
vn -0.4467 -0.7738 -0.4492
vn 0.9406 -0.0000 -0.3395
vn 0.4703 -0.8146 -0.3395
vn 0.4703 0.8146 -0.3395
vn -0.4703 0.8146 -0.3394
vn -0.9406 -0.0000 -0.3395
vn -0.4703 -0.8146 -0.3395
vn 0.9613 -0.0000 -0.2754
vn 0.4806 -0.8325 -0.2755
vn 0.4806 0.8325 -0.2755
vn -0.4807 0.8325 -0.2755
vn -0.9613 -0.0000 -0.2755
vn -0.4807 -0.8325 -0.2755
vn 0.9931 -0.0000 -0.1173
vn 0.4953 -0.8619 -0.1082
vn 0.4931 0.8629 -0.1105
vn -0.4966 0.8601 -0.1172
vn -0.9939 -0.0044 -0.1105
vn -0.4932 -0.8629 -0.1105
vn 0.5198 -0.0586 -0.8523
vn 0.2724 -0.4717 -0.8386
vn 0.2724 0.4717 -0.8386
vn -0.2091 0.4794 -0.8523
vn -0.5447 -0.0000 -0.8386
vn -0.2724 -0.4717 -0.8386
vn 0.7662 -0.1010 -0.6347
vn 0.3962 -0.6862 -0.6100
vn 0.3962 0.6862 -0.6100
vn -0.2956 0.7140 -0.6347
vn -0.7924 -0.0000 -0.6100
vn -0.3962 -0.6862 -0.6100
vn 0.7662 -0.1010 0.6347
vn 0.3962 -0.6862 0.6100
vn 0.3962 0.6862 0.6100
vn -0.2956 0.7140 0.6347
vn -0.7924 -0.0000 0.6100
vn -0.3962 -0.6862 0.6100
vn 0.5354 -0.0658 0.8420
vn 0.3014 -0.5265 0.7950
vn 0.3274 0.4417 0.8353
vn -0.2260 0.5030 0.8342
vn -0.5402 0.0523 0.8399
vn -0.3130 -0.4310 0.8464
vn 0.9998 -0.0000 -0.0195
vn 0.5000 -0.8659 -0.0105
vn 0.4998 0.8655 -0.0334
vn -0.4998 0.8655 -0.0334
vn -0.9997 -0.0003 -0.0245
vn -0.4999 -0.8660 -0.0105
vn 0.9428 -0.0170 0.3329
vn 0.4715 -0.8166 0.3329
vn 0.4715 0.8166 0.3329
vn -0.4715 0.8166 0.3329
vn -0.9428 0.0170 0.3329
vn -0.4715 -0.8166 0.3329
vn 0.9430 -0.0000 0.3329
vn 0.4455 -0.8056 0.3906
vn 0.4347 0.8205 0.3713
vn -0.4932 0.7867 0.3713
vn -0.9430 -0.0000 0.3329
vn -0.4347 -0.8205 0.3713
vn -0.2724 0.4717 -0.8386
vn -0.5198 0.0586 -0.8523
vn 0.6484 -0.0833 -0.7568
vn 0.3212 -0.5254 -0.7879
vn 0.3963 0.5199 -0.7568
vn -0.2520 0.6031 -0.7568
vn -0.6484 0.0833 -0.7568
vn -0.3963 -0.5198 -0.7568
vn 0.9956 -0.0003 -0.0935
vn 0.4974 -0.8617 -0.1005
vn 0.4983 0.8627 -0.0865
vn -0.4983 0.8627 -0.0865
vn -0.9956 -0.0003 -0.0935
vn -0.4974 -0.8617 -0.1005
vn 1.0000 -0.0004 0.0099
vn 0.4998 -0.8661 0.0059
vn 0.5001 0.8658 0.0140
vn -0.5001 0.8658 0.0140
vn -1.0000 -0.0003 0.0099
vn -0.4998 -0.8661 0.0059
vn -0.0384 -0.0665 0.9970
vn 0.0382 -0.0662 0.9971
vn -0.0000 -0.0000 1.0000
vn 0.0769 -0.0000 0.9970
vn 0.0389 0.0674 0.9970
vn -0.0391 0.0678 0.9969
vn -0.0778 -0.0000 0.9970
vn -0.9890 0.0951 -0.1136
vn -0.4123 0.9032 -0.1197
vn -0.5769 -0.8097 -0.1075
vn 0.4137 -0.9041 -0.1076
vn 0.9891 -0.0932 -0.1137
vn 0.5753 0.8091 -0.1198
vt 0.000000 0.000000
vt 0.000000 0.000000
vt 0.000000 0.000000
vt 0.000000 0.000000
vt 0.000000 0.000000
vt 0.000000 0.000000
vt 0.000000 0.000000
vt 0.000000 0.000000
vt 0.000000 0.000000
vt 0.000000 0.000000
vt 0.000000 0.000000
vt 0.000000 0.000000
vt 0.000000 0.000000
vt 0.000000 0.000000
vt 0.000000 0.000000
vt 0.000000 0.000000
vt 0.000000 0.000000
vt 0.000000 0.000000
vt 0.000000 0.000000
vt 0.000000 0.000000
vt 0.000000 0.000000
vt 0.000000 0.000000
vt 0.000000 0.000000
vt 0.000000 0.000000
vt 0.000000 0.000000
vt 0.000000 0.000000
vt 0.000000 0.000000
vt 0.000000 0.000000
vt 0.000000 0.000000
vt 0.000000 0.000000
vt 0.000000 0.000000
vt 0.000000 0.000000
vt 0.000000 0.000000
vt 0.000000 0.000000
vt 0.000000 0.000000
vt 0.000000 0.000000
vt 0.000000 0.000000
vt 0.000000 0.000000
vt 0.000000 0.000000
vt 0.000000 0.000000
vt 0.000000 0.000000
vt 0.000000 0.000000
vt 0.000000 0.000000
vt 0.000000 0.000000
vt 0.000000 0.000000
vt 0.000000 0.000000
vt 0.000000 0.000000
vt 0.000000 0.000000
vt 0.000000 0.000000
vt 0.000000 0.000000
vt 0.000000 0.000000
vt 0.000000 0.000000
vt 0.000000 0.000000
vt 0.000000 0.000000
vt 0.000000 0.000000
vt 0.000000 0.000000
vt 0.000000 0.000000
vt 0.000000 0.000000
vt 0.000000 0.000000
vt 0.000000 0.000000
vt 0.000000 0.000000
vt 0.000000 0.000000
vt 0.000000 0.000000
vt 0.000000 0.000000
vt 0.000000 0.000000
vt 0.000000 0.000000
vt 0.000000 0.000000
vt 0.000000 0.000000
vt 0.000000 0.000000
vt 0.000000 0.000000
vt 0.000000 0.000000
vt 0.000000 0.000000
vt 0.000000 0.000000
vt 0.000000 0.000000
vt 0.000000 0.000000
vt 0.000000 0.000000
vt 0.000000 0.000000
vt 0.000000 0.000000
vt 0.000000 0.000000
vt 0.000000 0.000000
vt 0.000000 0.000000
vt 0.000000 0.000000
vt 0.000000 0.000000
vt 0.000000 0.000000
vt 0.000000 0.000000
vt 0.000000 0.000000
vt 0.000000 0.000000
vt 0.000000 0.000000
vt 0.000000 0.000000
vt 0.000000 0.000000
vt 0.000000 0.000000
vt 0.000000 0.000000
vt 0.000000 0.000000
vt 0.000000 0.000000
vt 0.000000 0.000000
vt 0.000000 0.000000
vt 0.000000 0.000000
vt 0.000000 0.000000
vt 0.000000 0.000000
vt 0.000000 0.000000
vt 0.000000 0.000000
vt 0.000000 0.000000
vt 0.000000 0.000000
vt 0.000000 0.000000
vt 0.000000 0.000000
vt 0.000000 0.000000
vt 0.000000 0.000000
vt 0.000000 0.000000
vt 0.000000 0.000000
vt 0.000000 0.000000
vt 0.000000 0.000000
vt 0.000000 0.000000
vt 0.000000 0.000000
vt 0.000000 0.000000
vt 0.000000 0.000000
vt 0.000000 0.000000
vt 0.000000 0.000000
vt 0.000000 0.000000
vt 0.000000 0.000000
vt 0.000000 0.000000
vt 0.000000 0.000000
vt 0.000000 0.000000
vt 0.000000 0.000000
vt 0.000000 0.000000
vt 0.000000 0.000000
vt 0.000000 0.000000
vt 0.000000 0.000000
vt 0.000000 0.000000
vt 0.000000 0.000000
vt 0.000000 0.000000
s 1
f 2/2/1 1/1/2 4/4/3 3/3/4
f 3/3/5 4/4/6 6/6/7 5/5/8
f 5/5/9 6/6/10 8/8/11 7/7/12
f 7/7/13 8/8/14 1/1/15 2/2/16
f 1/1/2 9/9/17 10/10/18 4/4/3
f 4/4/6 10/10/19 11/11/20 6/6/7
f 6/6/10 11/11/21 12/12/22 8/8/11
f 8/8/14 12/12/23 9/9/24 1/1/15
f 9/9/17 13/13/25 14/14/25 10/10/18
f 11/11/21 15/15/26 16/16/26 12/12/22
f 16/16/27 15/15/27 14/14/27 13/13/27
f 15/15/28 11/11/20 10/10/19 14/14/28
f 5/5/29 7/7/30 2/2/31 3/3/32
f 12/12/23 16/16/33 13/13/33 9/9/24
f 18/18/34 17/17/35 20/20/36 19/19/37
f 17/17/38 21/21/39 22/22/40 20/20/41
f 21/21/42 23/23/43 24/24/44 22/22/45
f 23/23/46 18/18/47 19/19/48 24/24/49
f 19/19/37 20/20/36 26/26/50 25/25/51
f 20/20/41 22/22/40 27/27/52 26/26/53
f 22/22/45 24/24/44 28/28/54 27/27/55
f 24/24/49 19/19/48 25/25/56 28/28/57
f 25/25/51 26/26/50 30/30/58 29/29/58
f 27/27/55 28/28/54 32/32/59 31/31/59
f 32/32/60 29/29/60 30/30/60 31/31/60
f 31/31/61 30/30/61 26/26/53 27/27/52
f 21/21/62 17/17/63 18/18/64 23/23/65
f 28/28/57 25/25/56 29/29/66 32/32/66
f 35/35/67 34/34/68 33/33/69
f 36/36/70 35/35/67 33/33/69
f 37/37/71 36/36/70 33/33/69
f 38/38/72 37/37/71 33/33/69
f 39/39/73 38/38/72 33/33/69
f 34/34/68 39/39/73 33/33/69
f 34/34/68 35/35/67 41/41/74 40/40/75
f 35/35/67 36/36/70 42/42/76 41/41/74
f 36/36/70 37/37/71 43/43/77 42/42/76
f 37/37/71 38/38/72 44/44/78 43/43/77
f 38/38/72 39/39/73 45/45/79 44/44/78
f 39/39/73 34/34/68 40/40/75 45/45/79
f 40/40/75 41/41/74 47/47/80 46/46/81
f 41/41/74 42/42/76 48/48/82 47/47/80
f 42/42/76 43/43/77 49/49/83 48/48/82
f 43/43/77 44/44/78 50/50/84 49/49/83
f 44/44/78 45/45/79 51/51/85 50/50/84
f 45/45/79 40/40/75 46/46/81 51/51/85
f 46/46/81 47/47/80 53/53/86 52/52/87
f 47/47/80 48/48/82 54/54/88 53/53/86
f 48/48/82 49/49/83 55/55/89 54/54/88
f 49/49/83 50/50/84 56/56/90 55/55/89
f 50/50/84 51/51/85 57/57/91 56/56/90
f 51/51/85 46/46/81 52/52/87 57/57/91
f 52/52/87 53/53/86 59/59/92 58/58/93
f 53/53/86 54/54/88 60/60/94 59/59/92
f 54/54/88 55/55/89 61/61/95 60/60/94
f 55/55/89 56/56/90 62/62/96 61/61/95
f 56/56/90 57/57/91 63/63/97 62/62/96
f 57/57/91 52/52/87 58/58/93 63/63/97
f 58/58/93 59/59/92 65/65/98 64/64/99
f 59/59/92 60/60/94 66/66/100 65/65/98
f 60/60/94 61/61/95 67/67/101 66/66/100
f 61/61/95 62/62/96 68/68/102 67/67/101
f 62/62/96 63/63/97 69/69/103 68/68/102
f 63/63/97 58/58/93 64/64/99 69/69/103
f 64/64/99 65/65/98 71/71/104 70/70/105
f 65/65/98 66/66/100 72/72/106 71/71/104
f 66/66/100 67/67/101 73/73/107 72/72/106
f 67/67/101 68/68/102 74/74/108 73/73/107
f 68/68/102 69/69/103 75/75/109 74/74/108
f 69/69/103 64/64/99 70/70/105 75/75/109
f 70/70/105 71/71/104 77/77/110 76/76/111
f 71/71/104 72/72/106 78/78/112 77/77/110
f 72/72/106 73/73/107 79/79/113 78/78/112
f 73/73/107 74/74/108 80/80/114 79/79/113
f 74/74/108 75/75/109 81/81/115 80/80/114
f 75/75/109 70/70/105 76/76/111 81/81/115
f 76/76/111 77/77/110 83/83/116 82/82/117
f 77/77/110 78/78/112 84/84/118 83/83/116
f 78/78/112 79/79/113 85/85/119 84/84/118
f 79/79/113 80/80/114 86/86/120 85/85/119
f 80/80/114 81/81/115 87/87/121 86/86/120
f 81/81/115 76/76/111 82/82/117 87/87/121
f 82/82/117 83/83/116 89/89/122 88/88/123
f 83/83/116 84/84/118 90/90/124 89/89/122
f 84/84/118 85/85/119 91/91/125 90/90/124
f 85/85/119 86/86/120 92/92/126 91/91/125
f 86/86/120 87/87/121 93/93/127 92/92/126
f 87/87/121 82/82/117 88/88/123 93/93/127
f 88/88/123 89/89/122 95/95/128 94/94/129
f 89/89/122 90/90/124 96/96/130 95/95/128
f 90/90/124 91/91/125 97/97/131 96/96/130
f 91/91/125 92/92/126 98/98/132 97/97/131
f 92/92/126 93/93/127 99/99/133 98/98/132
f 93/93/127 88/88/123 94/94/129 99/99/133
f 94/94/129 95/95/128 101/101/92 100/100/93
f 95/95/128 96/96/130 102/102/94 101/101/92
f 96/96/130 97/97/131 103/103/134 102/102/94
f 97/97/131 98/98/132 104/104/135 103/103/134
f 98/98/132 99/99/133 105/105/97 104/104/135
f 99/99/133 94/94/129 100/100/93 105/105/97
f 100/100/93 101/101/92 107/107/136 106/106/137
f 101/101/92 102/102/94 108/108/138 107/107/136
f 102/102/94 103/103/134 109/109/139 108/108/138
f 103/103/134 104/104/135 110/110/140 109/109/139
f 104/104/135 105/105/97 111/111/141 110/110/140
f 105/105/97 100/100/93 106/106/137 111/111/141
f 106/106/137 107/107/136 113/113/142 112/112/143
f 107/107/136 108/108/138 114/114/144 113/113/142
f 108/108/138 109/109/139 115/115/145 114/114/144
f 109/109/139 110/110/140 116/116/146 115/115/145
f 110/110/140 111/111/141 117/117/147 116/116/146
f 111/111/141 106/106/137 112/112/143 117/117/147
f 112/112/143 113/113/142 119/119/148 118/118/149
f 113/113/142 114/114/144 120/120/150 119/119/148
f 114/114/144 115/115/145 121/121/151 120/120/150
f 115/115/145 116/116/146 122/122/152 121/121/151
f 116/116/146 117/117/147 123/123/153 122/122/152
f 117/117/147 112/112/143 118/118/149 123/123/153
f 126/126/154 125/125/155 124/124/156
f 125/125/155 127/127/157 124/124/156
f 127/127/157 128/128/158 124/124/156
f 128/128/158 129/129/159 124/124/156
f 129/129/159 130/130/160 124/124/156
f 130/130/160 126/126/154 124/124/156
f 121/121/151 122/122/152 125/125/161 126/126/162
f 122/122/152 123/123/153 127/127/163 125/125/161
f 123/123/153 118/118/149 128/128/164 127/127/163
f 118/118/149 119/119/148 129/129/165 128/128/164
f 119/119/148 120/120/150 130/130/166 129/129/165
f 120/120/150 121/121/151 126/126/162 130/130/166
