v 1.2 -0.2 1
v 1.2 0 1
v 1 0 1.2
v 1 -0.2 1.2
v 0.8 0 1
v 0.8 -0.2 1
v 1 0 0.8
v 1 -0.2 0.8
v -0.024999 1.225 1
v -0.225 1.225 1
v -0.225 1.025 1.2
v -0.024999 1.025 1.2
v -0.225 0.825 1
v -0.024999 0.825 1
v -0.225 1.025 0.8
v -0.024999 1.025 0.8
v 1 1.225 -0.025
v 1 1.225 -0.225
v 0.8 1.025 -0.225
v 0.8 1.025 -0.025
v 1 0.825 -0.225
v 1 0.825 -0.025
v 1.2 1.025 -0.225
v 1.2 1.025 -0.025
v 9.214 -0.2 1
v 9.214 0 1
v 9.014 0 1.2
v 9.014 -0.2 1.2
v 8.814 0 1
v 8.814 -0.2 1
v 9.014 0 0.8
v 9.014 -0.2 0.8
v 10.239 1.225 1
v 10.039 1.225 1
v 10.039 1.025 1.2
v 10.239 1.025 1.2
v 10.039 0.825 1
v 10.239 0.825 1
v 10.039 1.025 0.8
v 10.239 1.025 0.8
v 9.014 1.225 -0.025
v 9.014 1.225 -0.225
v 8.814 1.025 -0.225
v 8.814 1.025 -0.025
v 9.014 0.825 -0.225
v 9.014 0.825 -0.025
v 9.214 1.025 -0.225
v 9.214 1.025 -0.025
v 1.2 10.064 1
v 1.2 10.264 1
v 1 10.264 1.2
v 1 10.064 1.2
v 0.8 10.264 1
v 0.8 10.064 1
v 1 10.264 0.8
v 1 10.064 0.8
v -0.024999 9.239 1
v -0.225 9.239 1
v -0.225 9.039 1.2
v -0.024999 9.039 1.2
v -0.225 8.839 1
v -0.024999 8.839 1
v -0.225 9.039 0.8
v -0.024999 9.039 0.8
v 1 9.239 -0.025
v 1 9.239 -0.225
v 0.8 9.039 -0.225
v 0.8 9.039 -0.025
v 1 8.839 -0.225
v 1 8.839 -0.025
v 1.2 9.039 -0.225
v 1.2 9.039 -0.025
v 10.239 9.239 1
v 10.039 9.239 1
v 10.039 9.039 1.2
v 10.239 9.039 1.2
v 10.039 8.839 1
v 10.239 8.839 1
v 10.039 9.039 0.8
v 10.239 9.039 0.8
v 9.214 10.064 1
v 9.214 10.264 1
v 9.014 10.264 1.2
v 9.014 10.064 1.2
v 8.814 10.264 1
v 8.814 10.064 1
v 9.014 10.264 0.8
v 9.014 10.064 0.8
v 9.014 9.239 -0.025
v 9.014 9.239 -0.225
v 8.814 9.039 -0.225
v 8.814 9.039 -0.025
v 9.014 8.839 -0.225
v 9.014 8.839 -0.025
v 9.214 9.039 -0.225
v 9.214 9.039 -0.025
v 1.2 -0.2 9.014
v 1.2 0 9.014
v 1 0 9.214
v 1 -0.2 9.214
v 0.8 0 9.014
v 0.8 -0.2 9.014
v 1 0 8.814
v 1 -0.2 8.814
v 1 1.225 10.239
v 1 1.225 10.039
v 0.8 1.025 10.039
v 0.8 1.025 10.239
v 1 0.825 10.039
v 1 0.825 10.239
v 1.2 1.025 10.039
v 1.2 1.025 10.239
v -0.024999 1.225 9.014
v -0.225 1.225 9.014
v -0.225 1.025 9.214
v -0.024999 1.025 9.214
v -0.225 0.825 9.014
v -0.024999 0.825 9.014
v -0.225 1.025 8.814
v -0.024999 1.025 8.814
v 9.214 -0.2 9.014
v 9.214 0 9.014
v 9.014 0 9.214
v 9.014 -0.2 9.214
v 8.814 0 9.014
v 8.814 -0.2 9.014
v 9.014 0 8.814
v 9.014 -0.2 8.814
v 10.239 1.225 9.014
v 10.039 1.225 9.014
v 10.039 1.025 9.214
v 10.239 1.025 9.214
v 10.039 0.825 9.014
v 10.239 0.825 9.014
v 10.039 1.025 8.814
v 10.239 1.025 8.814
v 9.014 1.225 10.239
v 9.014 1.225 10.039
v 8.814 1.025 10.039
v 8.814 1.025 10.239
v 9.014 0.825 10.039
v 9.014 0.825 10.239
v 9.214 1.025 10.039
v 9.214 1.025 10.239
v 1 9.239 10.239
v 1 9.239 10.039
v 0.8 9.039 10.039
v 0.8 9.039 10.239
v 1 8.839 10.039
v 1 8.839 10.239
v 1.2 9.039 10.039
v 1.2 9.039 10.239
v 1.2 10.064 9.014
v 1.2 10.264 9.014
v 1 10.264 9.214
v 1 10.064 9.214
v 0.8 10.264 9.014
v 0.8 10.064 9.014
v 1 10.264 8.814
v 1 10.064 8.814
v -0.024999 9.239 9.014
v -0.225 9.239 9.014
v -0.225 9.039 9.214
v -0.024999 9.039 9.214
v -0.225 8.839 9.014
v -0.024999 8.839 9.014
v -0.225 9.039 8.814
v -0.024999 9.039 8.814
v 10.239 9.239 9.014
v 10.039 9.239 9.014
v 10.039 9.039 9.214
v 10.239 9.039 9.214
v 10.039 8.839 9.014
v 10.239 8.839 9.014
v 10.039 9.039 8.814
v 10.239 9.039 8.814
v 9.014 9.239 10.239
v 9.014 9.239 10.039
v 8.814 9.039 10.039
v 8.814 9.039 10.239
v 9.014 8.839 10.039
v 9.014 8.839 10.239
v 9.214 9.039 10.039
v 9.214 9.039 10.239
v 9.214 10.064 9.014
v 9.214 10.264 9.014
v 9.014 10.264 9.214
v 9.014 10.064 9.214
v 8.814 10.264 9.014
v 8.814 10.064 9.014
v 9.014 10.264 8.814
v 9.014 10.064 8.814
v 10 0 0
v 10 0 10
v 0 0 10
v 0 0 0
v 0 10 0
v 0 10 10
v 10 10 10
v 10 10 0
vt 0 0
vn 0.707107 0 0.707107
vn -0.707107 0 0.707107
vn -0.707107 0 -0.707107
vn 0.707107 0 -0.707107
vn 0 1 0
vn 0 -1 0
vn 0 0.707107 0.707107
vn 0 -0.707107 0.707107
vn 0 -0.707107 -0.707107
vn 0 0.707107 -0.707107
vn -1 0 0
vn 1 0 0
vn -0.707107 0.707107 0
vn -0.707107 -0.707107 0
vn 0.707107 -0.707107 0
vn 0.707107 0.707107 0
vn 0 0 -1
vn 0 0 1
f 1/1/1 2/1/1 3/1/1
f 1/1/1 3/1/1 4/1/1
f 4/1/2 3/1/2 5/1/2
f 4/1/2 5/1/2 6/1/2
f 6/1/3 5/1/3 7/1/3
f 6/1/3 7/1/3 8/1/3
f 8/1/4 7/1/4 2/1/4
f 2/1/4 1/1/4 8/1/4
f 7/1/5 5/1/5 3/1/5
f 7/1/5 3/1/5 2/1/5
f 1/1/6 4/1/6 6/1/6
f 1/1/6 6/1/6 8/1/6
f 9/1/7 10/1/7 11/1/7
f 9/1/7 11/1/7 12/1/7
f 12/1/8 11/1/8 13/1/8
f 12/1/8 13/1/8 14/1/8
f 14/1/9 13/1/9 15/1/9
f 14/1/9 15/1/9 16/1/9
f 16/1/10 15/1/10 10/1/10
f 16/1/10 10/1/10 9/1/10
f 15/1/11 13/1/11 11/1/11
f 15/1/11 11/1/11 10/1/11
f 9/1/12 12/1/12 14/1/12
f 9/1/12 14/1/12 16/1/12
f 17/1/13 18/1/13 19/1/13
f 17/1/13 19/1/13 20/1/13
f 20/1/14 19/1/14 21/1/14
f 20/1/14 21/1/14 22/1/14
f 22/1/15 21/1/15 23/1/15
f 22/1/15 23/1/15 24/1/15
f 24/1/16 23/1/16 18/1/16
f 24/1/16 18/1/16 17/1/16
f 23/1/17 21/1/17 19/1/17
f 23/1/17 19/1/17 18/1/17
f 17/1/18 20/1/18 22/1/18
f 17/1/18 22/1/18 24/1/18
f 25/1/1 26/1/1 27/1/1
f 25/1/1 27/1/1 28/1/1
f 28/1/2 27/1/2 29/1/2
f 28/1/2 29/1/2 30/1/2
f 30/1/3 29/1/3 31/1/3
f 30/1/3 31/1/3 32/1/3
f 32/1/4 31/1/4 26/1/4
f 32/1/4 26/1/4 25/1/4
f 31/1/5 29/1/5 27/1/5
f 31/1/5 27/1/5 26/1/5
f 25/1/6 28/1/6 30/1/6
f 25/1/6 30/1/6 32/1/6
f 33/1/7 34/1/7 35/1/7
f 33/1/7 35/1/7 36/1/7
f 36/1/8 35/1/8 37/1/8
f 36/1/8 37/1/8 38/1/8
f 38/1/9 37/1/9 39/1/9
f 38/1/9 39/1/9 40/1/9
f 40/1/10 39/1/10 34/1/10
f 40/1/10 34/1/10 33/1/10
f 39/1/11 37/1/11 35/1/11
f 39/1/11 35/1/11 34/1/11
f 33/1/12 36/1/12 38/1/12
f 33/1/12 38/1/12 40/1/12
f 41/1/13 42/1/13 43/1/13
f 41/1/13 43/1/13 44/1/13
f 44/1/14 43/1/14 45/1/14
f 44/1/14 45/1/14 46/1/14
f 46/1/15 45/1/15 47/1/15
f 46/1/15 47/1/15 48/1/15
f 48/1/16 47/1/16 42/1/16
f 48/1/16 42/1/16 41/1/16
f 47/1/17 45/1/17 43/1/17
f 47/1/17 43/1/17 42/1/17
f 41/1/18 44/1/18 46/1/18
f 41/1/18 46/1/18 48/1/18
f 49/1/1 50/1/1 51/1/1
f 49/1/1 51/1/1 52/1/1
f 52/1/2 51/1/2 53/1/2
f 52/1/2 53/1/2 54/1/2
f 54/1/3 53/1/3 55/1/3
f 54/1/3 55/1/3 56/1/3
f 56/1/4 55/1/4 50/1/4
f 56/1/4 50/1/4 49/1/4
f 55/1/5 53/1/5 51/1/5
f 55/1/5 51/1/5 50/1/5
f 49/1/6 52/1/6 54/1/6
f 49/1/6 54/1/6 56/1/6
f 57/1/7 58/1/7 59/1/7
f 57/1/7 59/1/7 60/1/7
f 60/1/8 59/1/8 61/1/8
f 60/1/8 61/1/8 62/1/8
f 62/1/9 61/1/9 63/1/9
f 62/1/9 63/1/9 64/1/9
f 64/1/10 63/1/10 58/1/10
f 64/1/10 58/1/10 57/1/10
f 63/1/11 61/1/11 59/1/11
f 63/1/11 59/1/11 58/1/11
f 57/1/12 60/1/12 62/1/12
f 57/1/12 62/1/12 64/1/12
f 65/1/13 66/1/13 67/1/13
f 65/1/13 67/1/13 68/1/13
f 68/1/14 67/1/14 69/1/14
f 68/1/14 69/1/14 70/1/14
f 70/1/15 69/1/15 71/1/15
f 70/1/15 71/1/15 72/1/15
f 72/1/16 71/1/16 66/1/16
f 72/1/16 66/1/16 65/1/16
f 71/1/17 69/1/17 67/1/17
f 71/1/17 67/1/17 66/1/17
f 65/1/18 68/1/18 70/1/18
f 65/1/18 70/1/18 72/1/18
f 73/1/7 74/1/7 75/1/7
f 73/1/7 75/1/7 76/1/7
f 76/1/8 75/1/8 77/1/8
f 76/1/8 77/1/8 78/1/8
f 78/1/9 77/1/9 79/1/9
f 78/1/9 79/1/9 80/1/9
f 80/1/10 79/1/10 74/1/10
f 80/1/10 74/1/10 73/1/10
f 79/1/11 77/1/11 75/1/11
f 79/1/11 75/1/11 74/1/11
f 73/1/12 76/1/12 78/1/12
f 73/1/12 78/1/12 80/1/12
f 81/1/1 82/1/1 83/1/1
f 81/1/1 83/1/1 84/1/1
f 84/1/2 83/1/2 85/1/2
f 84/1/2 85/1/2 86/1/2
f 86/1/3 85/1/3 87/1/3
f 86/1/3 87/1/3 88/1/3
f 88/1/4 87/1/4 82/1/4
f 88/1/4 82/1/4 81/1/4
f 87/1/5 85/1/5 83/1/5
f 87/1/5 83/1/5 82/1/5
f 81/1/6 84/1/6 86/1/6
f 81/1/6 86/1/6 88/1/6
f 89/1/13 90/1/13 91/1/13
f 89/1/13 91/1/13 92/1/13
f 92/1/14 91/1/14 93/1/14
f 92/1/14 93/1/14 94/1/14
f 94/1/15 93/1/15 95/1/15
f 94/1/15 95/1/15 96/1/15
f 96/1/16 95/1/16 90/1/16
f 96/1/16 90/1/16 89/1/16
f 95/1/17 93/1/17 91/1/17
f 95/1/17 91/1/17 90/1/17
f 89/1/18 92/1/18 94/1/18
f 89/1/18 94/1/18 96/1/18
f 97/1/1 98/1/1 99/1/1
f 97/1/1 99/1/1 100/1/1
f 100/1/2 99/1/2 101/1/2
f 100/1/2 101/1/2 102/1/2
f 102/1/3 101/1/3 103/1/3
f 102/1/3 103/1/3 104/1/3
f 104/1/4 103/1/4 98/1/4
f 104/1/4 98/1/4 97/1/4
f 103/1/5 101/1/5 99/1/5
f 103/1/5 99/1/5 98/1/5
f 97/1/6 100/1/6 102/1/6
f 97/1/6 102/1/6 104/1/6
f 105/1/13 106/1/13 107/1/13
f 105/1/13 107/1/13 108/1/13
f 108/1/14 107/1/14 109/1/14
f 108/1/14 109/1/14 110/1/14
f 110/1/15 109/1/15 111/1/15
f 110/1/15 111/1/15 112/1/15
f 112/1/16 111/1/16 106/1/16
f 112/1/16 106/1/16 105/1/16
f 111/1/17 109/1/17 107/1/17
f 111/1/17 107/1/17 106/1/17
f 105/1/18 108/1/18 110/1/18
f 105/1/18 110/1/18 112/1/18
f 113/1/7 114/1/7 115/1/7
f 113/1/7 115/1/7 116/1/7
f 116/1/8 115/1/8 117/1/8
f 116/1/8 117/1/8 118/1/8
f 118/1/9 117/1/9 119/1/9
f 118/1/9 119/1/9 120/1/9
f 120/1/10 119/1/10 114/1/10
f 120/1/10 114/1/10 113/1/10
f 119/1/11 117/1/11 115/1/11
f 119/1/11 115/1/11 114/1/11
f 113/1/12 116/1/12 118/1/12
f 113/1/12 118/1/12 120/1/12
f 121/1/1 122/1/1 123/1/1
f 121/1/1 123/1/1 124/1/1
f 124/1/2 123/1/2 125/1/2
f 124/1/2 125/1/2 126/1/2
f 126/1/3 125/1/3 127/1/3
f 126/1/3 127/1/3 128/1/3
f 128/1/4 127/1/4 122/1/4
f 128/1/4 122/1/4 121/1/4
f 127/1/5 125/1/5 123/1/5
f 127/1/5 123/1/5 122/1/5
f 121/1/6 124/1/6 126/1/6
f 121/1/6 126/1/6 128/1/6
f 129/1/7 130/1/7 131/1/7
f 129/1/7 131/1/7 132/1/7
f 132/1/8 131/1/8 133/1/8
f 132/1/8 133/1/8 134/1/8
f 134/1/9 133/1/9 135/1/9
f 134/1/9 135/1/9 136/1/9
f 136/1/10 135/1/10 130/1/10
f 136/1/10 130/1/10 129/1/10
f 135/1/11 133/1/11 131/1/11
f 135/1/11 131/1/11 130/1/11
f 129/1/12 132/1/12 134/1/12
f 129/1/12 134/1/12 136/1/12
f 137/1/13 138/1/13 139/1/13
f 137/1/13 139/1/13 140/1/13
f 140/1/14 139/1/14 141/1/14
f 140/1/14 141/1/14 142/1/14
f 142/1/15 141/1/15 143/1/15
f 142/1/15 143/1/15 144/1/15
f 144/1/16 143/1/16 138/1/16
f 144/1/16 138/1/16 137/1/16
f 143/1/17 141/1/17 139/1/17
f 143/1/17 139/1/17 138/1/17
f 137/1/18 140/1/18 142/1/18
f 137/1/18 142/1/18 144/1/18
f 145/1/13 146/1/13 147/1/13
f 145/1/13 147/1/13 148/1/13
f 148/1/14 147/1/14 149/1/14
f 148/1/14 149/1/14 150/1/14
f 150/1/15 149/1/15 151/1/15
f 150/1/15 151/1/15 152/1/15
f 152/1/16 151/1/16 146/1/16
f 152/1/16 146/1/16 145/1/16
f 151/1/17 149/1/17 147/1/17
f 151/1/17 147/1/17 146/1/17
f 145/1/18 148/1/18 150/1/18
f 145/1/18 150/1/18 152/1/18
f 153/1/1 154/1/1 155/1/1
f 153/1/1 155/1/1 156/1/1
f 156/1/2 155/1/2 157/1/2
f 156/1/2 157/1/2 158/1/2
f 158/1/3 157/1/3 159/1/3
f 158/1/3 159/1/3 160/1/3
f 160/1/4 159/1/4 154/1/4
f 160/1/4 154/1/4 153/1/4
f 159/1/5 157/1/5 155/1/5
f 159/1/5 155/1/5 154/1/5
f 153/1/6 156/1/6 158/1/6
f 153/1/6 158/1/6 160/1/6
f 161/1/7 162/1/7 163/1/7
f 161/1/7 163/1/7 164/1/7
f 164/1/8 163/1/8 165/1/8
f 164/1/8 165/1/8 166/1/8
f 166/1/9 165/1/9 167/1/9
f 166/1/9 167/1/9 168/1/9
f 168/1/10 167/1/10 162/1/10
f 168/1/10 162/1/10 161/1/10
f 167/1/11 165/1/11 163/1/11
f 167/1/11 163/1/11 162/1/11
f 161/1/12 164/1/12 166/1/12
f 161/1/12 166/1/12 168/1/12
f 169/1/7 170/1/7 171/1/7
f 169/1/7 171/1/7 172/1/7
f 172/1/8 171/1/8 173/1/8
f 172/1/8 173/1/8 174/1/8
f 174/1/9 173/1/9 175/1/9
f 174/1/9 175/1/9 176/1/9
f 176/1/10 175/1/10 170/1/10
f 176/1/10 170/1/10 169/1/10
f 175/1/11 173/1/11 171/1/11
f 175/1/11 171/1/11 170/1/11
f 169/1/12 172/1/12 174/1/12
f 169/1/12 174/1/12 176/1/12
f 177/1/13 178/1/13 179/1/13
f 177/1/13 179/1/13 180/1/13
f 180/1/14 179/1/14 181/1/14
f 180/1/14 181/1/14 182/1/14
f 182/1/15 181/1/15 183/1/15
f 182/1/15 183/1/15 184/1/15
f 184/1/16 183/1/16 178/1/16
f 184/1/16 178/1/16 177/1/16
f 183/1/17 181/1/17 179/1/17
f 183/1/17 179/1/17 178/1/17
f 177/1/18 180/1/18 182/1/18
f 177/1/18 182/1/18 184/1/18
f 185/1/1 186/1/1 187/1/1
f 185/1/1 187/1/1 188/1/1
f 188/1/2 187/1/2 189/1/2
f 188/1/2 189/1/2 190/1/2
f 190/1/3 189/1/3 191/1/3
f 190/1/3 191/1/3 192/1/3
f 192/1/4 191/1/4 186/1/4
f 192/1/4 186/1/4 185/1/4
f 191/1/5 189/1/5 187/1/5
f 191/1/5 187/1/5 186/1/5
f 185/1/6 188/1/6 190/1/6
f 185/1/6 190/1/6 192/1/6
f 193/1/6 194/1/6 195/1/6
f 193/1/6 195/1/6 196/1/6
f 197/1/5 198/1/5 199/1/5
f 197/1/5 199/1/5 200/1/5
f 193/1/12 200/1/12 199/1/12
f 193/1/12 199/1/12 194/1/12
f 198/1/18 195/1/18 194/1/18
f 198/1/18 194/1/18 199/1/18
f 197/1/11 196/1/11 195/1/11
f 197/1/11 195/1/11 198/1/11
f 200/1/17 193/1/17 196/1/17
f 200/1/17 196/1/17 197/1/17
