v 5 0 0
v 5 0 5
v 0 0 5
v 0 0 0
v 0 5 0
v 0 5 5
v 5 5 5
v 5 5 0
v 1.2 -0.2 1
v 1.2 0 1
v 1 0 1.2
v 1 -0.2 1.2
v 0.8 0 1
v 0.8 -0.2 1
v 1 0 0.8
v 1 -0.2 0.8
v 1.2 -0.2 4
v 1.2 0 4
v 1 0 4.2
v 1 -0.2 4.2
v 0.8 0 4
v 0.8 -0.2 4
v 1 0 3.8
v 1 -0.2 3.8
v 4.2 -0.2 1
v 4.2 0 1
v 4 0 1.2
v 4 -0.2 1.2
v 3.8 0 1
v 3.8 -0.2 1
v 4 0 0.8
v 4 -0.2 0.8
v 4.2 -0.2 4
v 4.2 0 4
v 4 0 4.2
v 4 -0.2 4.2
v 3.8 0 4
v 3.8 -0.2 4
v 4 0 3.8
v 4 -0.2 3.8
v 5.225 1.225 1
v 5.025 1.225 1
v 5.025 1.025 1.2
v 5.225 1.025 1.2
v 5.025 0.825 1
v 5.225 0.825 1
v 5.025 1.025 0.8
v 5.225 1.025 0.8
v 5.225 1.225 4
v 5.025 1.225 4
v 5.025 1.025 4.2
v 5.225 1.025 4.2
v 5.025 0.825 4
v 5.225 0.825 4
v 5.025 1.025 3.8
v 5.225 1.025 3.8
v 5.225 4.225 1
v 5.025 4.225 1
v 5.025 4.025 1.2
v 5.225 4.025 1.2
v 5.025 3.825 1
v 5.225 3.825 1
v 5.025 4.025 0.8
v 5.225 4.025 0.8
v 5.225 4.225 4
v 5.025 4.225 4
v 5.025 4.025 4.2
v 5.225 4.025 4.2
v 5.025 3.825 4
v 5.225 3.825 4
v 5.025 4.025 3.8
v 5.225 4.025 3.8
v 4 1.225 5.225
v 4 1.225 5.025
v 3.8 1.025 5.025
v 3.8 1.025 5.225
v 4 0.825 5.025
v 4 0.825 5.225
v 4.2 1.025 5.025
v 4.2 1.025 5.225
v 1 1.225 5.225
v 1 1.225 5.025
v 0.8 1.025 5.025
v 0.8 1.025 5.225
v 1 0.825 5.025
v 1 0.825 5.225
v 1.2 1.025 5.025
v 1.2 1.025 5.225
v 4 4.225 5.225
v 4 4.225 5.025
v 3.8 4.025 5.025
v 3.8 4.025 5.225
v 4 3.825 5.025
v 4 3.825 5.225
v 4.2 4.025 5.025
v 4.2 4.025 5.225
v 1 4.225 5.225
v 1 4.225 5.025
v 0.8 4.025 5.025
v 0.8 4.025 5.225
v 1 3.825 5.025
v 1 3.825 5.225
v 1.2 4.025 5.025
v 1.2 4.025 5.225
v 1.2 5.05 1
v 1.2 5.25 1
v 1 5.25 1.2
v 1 5.05 1.2
v 0.8 5.25 1
v 0.8 5.05 1
v 1 5.25 0.8
v 1 5.05 0.8
v 1.2 5.05 4
v 1.2 5.25 4
v 1 5.25 4.2
v 1 5.05 4.2
v 0.8 5.25 4
v 0.8 5.05 4
v 1 5.25 3.8
v 1 5.05 3.8
v 4.2 5.05 1
v 4.2 5.25 1
v 4 5.25 1.2
v 4 5.05 1.2
v 3.8 5.25 1
v 3.8 5.05 1
v 4 5.25 0.8
v 4 5.05 0.8
v 4.2 5.05 4
v 4.2 5.25 4
v 4 5.25 4.2
v 4 5.05 4.2
v 3.8 5.25 4
v 3.8 5.05 4
v 4 5.25 3.8
v 4 5.05 3.8
v -0.0249995 1.225 1
v -0.225 1.225 1
v -0.225 1.025 1.2
v -0.0249995 1.025 1.2
v -0.225 0.825 1
v -0.0249995 0.825 1
v -0.225 1.025 0.8
v -0.0249995 1.025 0.8
v -0.0249995 1.225 4
v -0.225 1.225 4
v -0.225 1.025 4.2
v -0.0249995 1.025 4.2
v -0.225 0.825 4
v -0.0249995 0.825 4
v -0.225 1.025 3.8
v -0.0249995 1.025 3.8
v -0.0249995 4.225 1
v -0.225 4.225 1
v -0.225 4.025 1.2
v -0.0249995 4.025 1.2
v -0.225 3.825 1
v -0.0249995 3.825 1
v -0.225 4.025 0.8
v -0.0249995 4.025 0.8
v -0.0249995 4.225 4
v -0.225 4.225 4
v -0.225 4.025 4.2
v -0.0249995 4.025 4.2
v -0.225 3.825 4
v -0.0249995 3.825 4
v -0.225 4.025 3.8
v -0.0249995 4.025 3.8
v 4 1.225 -0.0249998
v 4 1.225 -0.225
v 3.8 1.025 -0.225
v 3.8 1.025 -0.0249998
v 4 0.825 -0.225
v 4 0.825 -0.0249998
v 4.2 1.025 -0.225
v 4.2 1.025 -0.0249998
v 1 1.225 -0.0249998
v 1 1.225 -0.225
v 0.8 1.025 -0.225
v 0.8 1.025 -0.0249998
v 1 0.825 -0.225
v 1 0.825 -0.0249998
v 1.2 1.025 -0.225
v 1.2 1.025 -0.0249998
v 4 4.225 -0.0249998
v 4 4.225 -0.225
v 3.8 4.025 -0.225
v 3.8 4.025 -0.0249998
v 4 3.825 -0.225
v 4 3.825 -0.0249998
v 4.2 4.025 -0.225
v 4.2 4.025 -0.0249998
v 1 4.225 -0.0249998
v 1 4.225 -0.225
v 0.8 4.025 -0.225
v 0.8 4.025 -0.0249998
v 1 3.825 -0.225
v 1 3.825 -0.0249998
v 1.2 4.025 -0.225
v 1.2 4.025 -0.0249998
vt 0 0 0 0
vt 0 0 0 0
vt 0 0 0 0
vt 0 0 0 0
vt 0 0 0 0
vt 0 0 0 0
vt 0 0 0 0
vt 0 0 0 0
vt 0 0 0 0
vt 0 0 0 0
vn 0 -1 0
vn 0 1 0
vn 1 0 0
vn 0 0 1
vn -1 0 0
vn 0 0 -1
vn 0.707107 0 0.707107
vn -0.707107 0 0.707107
vn -0.707107 0 -0.707107
vn 0.707107 0 -0.707107
vn 0 0.707107 0.707107
vn 0 -0.707107 0.707107
vn 0 -0.707107 -0.707107
vn 0 0.707107 -0.707107
vn -0.707115 0.707098 0
vn -0.707115 -0.707098 0
vn 0.707115 -0.707098 -4.21474e-06
vn 0.707115 0.707098 0
f 1/1/1 2/2/1 3/3/1
f 1/1/1 3/3/1 4/4/1
f 5/4/2 6/3/2 7/2/2
f 5/4/2 7/2/2 8/1/2
f 7/5/3 2/6/3 1/3/3
f 7/5/3 1/3/3 8/4/3
f 6/7/4 3/8/4 2/6/4
f 6/7/4 2/6/4 7/5/4
f 5/9/5 4/10/5 3/8/5
f 5/9/5 3/8/5 6/7/5
f 8/1/6 1/2/6 4/10/6
f 8/1/6 4/10/6 5/9/6
f 9/4/7 10/3/7 11/6/7
f 9/4/7 11/6/7 12/5/7
f 12/5/8 11/6/8 13/8/8
f 12/5/8 13/8/8 14/7/8
f 14/7/9 13/8/9 15/10/9
f 14/7/9 15/10/9 16/9/9
f 16/9/10 15/10/10 10/2/10
f 16/9/10 10/2/10 9/1/10
f 15/4/2 13/3/2 11/2/2
f 15/4/2 11/2/2 10/1/2
f 9/1/1 12/2/1 14/3/1
f 9/1/1 14/3/1 16/4/1
f 17/4/7 18/3/7 19/6/7
f 17/4/7 19/6/7 20/5/7
f 20/5/8 19/6/8 21/8/8
f 20/5/8 21/8/8 22/7/8
f 22/7/9 21/8/9 23/10/9
f 22/7/9 23/10/9 24/9/9
f 24/9/10 23/10/10 18/2/10
f 24/9/10 18/2/10 17/1/10
f 23/4/2 21/3/2 19/2/2
f 23/4/2 19/2/2 18/1/2
f 17/1/1 20/2/1 22/3/1
f 17/1/1 22/3/1 24/4/1
f 25/4/7 26/3/7 27/6/7
f 25/4/7 27/6/7 28/5/7
f 28/5/8 27/6/8 29/8/8
f 28/5/8 29/8/8 30/7/8
f 30/7/9 29/8/9 31/10/9
f 30/7/9 31/10/9 32/9/9
f 32/9/10 31/10/10 26/2/10
f 32/9/10 26/2/10 25/1/10
f 31/4/2 29/3/2 27/2/2
f 31/4/2 27/2/2 26/1/2
f 25/1/1 28/2/1 30/3/1
f 25/1/1 30/3/1 32/4/1
f 33/4/7 34/3/7 35/6/7
f 33/4/7 35/6/7 36/5/7
f 36/5/8 35/6/8 37/8/8
f 36/5/8 37/8/8 38/7/8
f 38/7/9 37/8/9 39/10/9
f 38/7/9 39/10/9 40/9/9
f 40/9/10 39/10/10 34/2/10
f 40/9/10 34/2/10 33/1/10
f 39/4/2 37/3/2 35/2/2
f 39/4/2 35/2/2 34/1/2
f 33/1/1 36/2/1 38/3/1
f 33/1/1 38/3/1 40/4/1
f 41/4/11 42/3/11 43/6/11
f 41/4/11 43/6/11 44/5/11
f 44/5/12 43/6/12 45/8/12
f 44/5/12 45/8/12 46/7/12
f 46/7/13 45/8/13 47/10/13
f 46/7/13 47/10/13 48/9/13
f 48/9/14 47/10/14 42/2/14
f 48/9/14 42/2/14 41/1/14
f 47/4/5 45/3/5 43/2/5
f 47/4/5 43/2/5 42/1/5
f 41/1/3 44/2/3 46/3/3
f 41/1/3 46/3/3 48/4/3
f 49/4/11 50/3/11 51/6/11
f 49/4/11 51/6/11 52/5/11
f 52/5/12 51/6/12 53/8/12
f 52/5/12 53/8/12 54/7/12
f 54/7/13 53/8/13 55/10/13
f 54/7/13 55/10/13 56/9/13
f 56/9/14 55/10/14 50/2/14
f 56/9/14 50/2/14 49/1/14
f 55/4/5 53/3/5 51/2/5
f 55/4/5 51/2/5 50/1/5
f 49/1/3 52/2/3 54/3/3
f 49/1/3 54/3/3 56/4/3
f 57/4/11 58/3/11 59/6/11
f 57/4/11 59/6/11 60/5/11
f 60/5/12 59/6/12 61/8/12
f 60/5/12 61/8/12 62/7/12
f 62/7/13 61/8/13 63/10/13
f 62/7/13 63/10/13 64/9/13
f 64/9/14 63/10/14 58/2/14
f 64/9/14 58/2/14 57/1/14
f 63/4/5 61/3/5 59/2/5
f 63/4/5 59/2/5 58/1/5
f 57/1/3 60/2/3 62/3/3
f 57/1/3 62/3/3 64/4/3
f 65/4/11 66/3/11 67/6/11
f 65/4/11 67/6/11 68/5/11
f 68/5/12 67/6/12 69/8/12
f 68/5/12 69/8/12 70/7/12
f 70/7/13 69/8/13 71/10/13
f 70/7/13 71/10/13 72/9/13
f 72/9/14 71/10/14 66/2/14
f 72/9/14 66/2/14 65/1/14
f 71/4/5 69/3/5 67/2/5
f 71/4/5 67/2/5 66/1/5
f 65/1/3 68/2/3 70/3/3
f 65/1/3 70/3/3 72/4/3
f 73/4/15 74/3/15 75/6/15
f 73/4/15 75/6/15 76/5/15
f 76/5/16 75/6/16 77/8/16
f 76/5/16 77/8/16 78/7/16
f 78/7/17 77/8/17 79/10/17
f 78/7/17 79/10/17 80/9/17
f 80/9/18 79/10/18 74/2/18
f 80/9/18 74/2/18 73/1/18
f 79/4/6 77/3/6 75/2/6
f 79/4/6 75/2/6 74/1/6
f 73/1/4 76/2/4 78/3/4
f 73/1/4 78/3/4 80/4/4
f 81/4/15 82/3/15 83/6/15
f 81/4/15 83/6/15 84/5/15
f 84/5/16 83/6/16 85/8/16
f 84/5/16 85/8/16 86/7/16
f 86/7/17 85/8/17 87/10/17
f 86/7/17 87/10/17 88/9/17
f 88/9/18 87/10/18 82/2/18
f 88/9/18 82/2/18 81/1/18
f 87/4/6 85/3/6 83/2/6
f 87/4/6 83/2/6 82/1/6
f 81/1/4 84/2/4 86/3/4
f 81/1/4 86/3/4 88/4/4
f 89/4/15 90/3/15 91/6/15
f 89/4/15 91/6/15 92/5/15
f 92/5/16 91/6/16 93/8/16
f 92/5/16 93/8/16 94/7/16
f 94/7/17 93/8/17 95/10/17
f 94/7/17 95/10/17 96/9/17
f 96/9/18 95/10/18 90/2/18
f 96/9/18 90/2/18 89/1/18
f 95/4/6 93/3/6 91/2/6
f 95/4/6 91/2/6 90/1/6
f 89/1/4 92/2/4 94/3/4
f 89/1/4 94/3/4 96/4/4
f 97/4/15 98/3/15 99/6/15
f 97/4/15 99/6/15 100/5/15
f 100/5/16 99/6/16 101/8/16
f 100/5/16 101/8/16 102/7/16
f 102/7/17 101/8/17 103/10/17
f 102/7/17 103/10/17 104/9/17
f 104/9/18 103/10/18 98/2/18
f 104/9/18 98/2/18 97/1/18
f 103/4/6 101/3/6 99/2/6
f 103/4/6 99/2/6 98/1/6
f 97/1/4 100/2/4 102/3/4
f 97/1/4 102/3/4 104/4/4
f 105/4/7 106/3/7 107/6/7
f 105/4/7 107/6/7 108/5/7
f 108/5/8 107/6/8 109/8/8
f 108/5/8 109/8/8 110/7/8
f 110/7/9 109/8/9 111/10/9
f 110/7/9 111/10/9 112/9/9
f 112/9/10 111/10/10 106/2/10
f 112/9/10 106/2/10 105/1/10
f 111/4/2 109/3/2 107/2/2
f 111/4/2 107/2/2 106/1/2
f 105/1/1 108/2/1 110/3/1
f 105/1/1 110/3/1 112/4/1
f 113/4/7 114/3/7 115/6/7
f 113/4/7 115/6/7 116/5/7
f 116/5/8 115/6/8 117/8/8
f 116/5/8 117/8/8 118/7/8
f 118/7/9 117/8/9 119/10/9
f 118/7/9 119/10/9 120/9/9
f 120/9/10 119/10/10 114/2/10
f 120/9/10 114/2/10 113/1/10
f 119/4/2 117/3/2 115/2/2
f 119/4/2 115/2/2 114/1/2
f 113/1/1 116/2/1 118/3/1
f 113/1/1 118/3/1 120/4/1
f 121/4/7 122/3/7 123/6/7
f 121/4/7 123/6/7 124/5/7
f 124/5/8 123/6/8 125/8/8
f 124/5/8 125/8/8 126/7/8
f 126/7/9 125/8/9 127/10/9
f 126/7/9 127/10/9 128/9/9
f 128/9/10 127/10/10 122/2/10
f 128/9/10 122/2/10 121/1/10
f 127/4/2 125/3/2 123/2/2
f 127/4/2 123/2/2 122/1/2
f 121/1/1 124/2/1 126/3/1
f 121/1/1 126/3/1 128/4/1
f 129/4/7 130/3/7 131/6/7
f 129/4/7 131/6/7 132/5/7
f 132/5/8 131/6/8 133/8/8
f 132/5/8 133/8/8 134/7/8
f 134/7/9 133/8/9 135/10/9
f 134/7/9 135/10/9 136/9/9
f 136/9/10 135/10/10 130/2/10
f 136/9/10 130/2/10 129/1/10
f 135/4/2 133/3/2 131/2/2
f 135/4/2 131/2/2 130/1/2
f 129/1/1 132/2/1 134/3/1
f 129/1/1 134/3/1 136/4/1
f 137/4/11 138/3/11 139/6/11
f 137/4/11 139/6/11 140/5/11
f 140/5/12 139/6/12 141/8/12
f 140/5/12 141/8/12 142/7/12
f 142/7/13 141/8/13 143/10/13
f 142/7/13 143/10/13 144/9/13
f 144/9/14 143/10/14 138/2/14
f 144/9/14 138/2/14 137/1/14
f 143/4/5 141/3/5 139/2/5
f 143/4/5 139/2/5 138/1/5
f 137/1/3 140/2/3 142/3/3
f 137/1/3 142/3/3 144/4/3
f 145/4/11 146/3/11 147/6/11
f 145/4/11 147/6/11 148/5/11
f 148/5/12 147/6/12 149/8/12
f 148/5/12 149/8/12 150/7/12
f 150/7/13 149/8/13 151/10/13
f 150/7/13 151/10/13 152/9/13
f 152/9/14 151/10/14 146/2/14
f 152/9/14 146/2/14 145/1/14
f 151/4/5 149/3/5 147/2/5
f 151/4/5 147/2/5 146/1/5
f 145/1/3 148/2/3 150/3/3
f 145/1/3 150/3/3 152/4/3
f 153/4/11 154/3/11 155/6/11
f 153/4/11 155/6/11 156/5/11
f 156/5/12 155/6/12 157/8/12
f 156/5/12 157/8/12 158/7/12
f 158/7/13 157/8/13 159/10/13
f 158/7/13 159/10/13 160/9/13
f 160/9/14 159/10/14 154/2/14
f 160/9/14 154/2/14 153/1/14
f 159/4/5 157/3/5 155/2/5
f 159/4/5 155/2/5 154/1/5
f 153/1/3 156/2/3 158/3/3
f 153/1/3 158/3/3 160/4/3
f 161/4/11 162/3/11 163/6/11
f 161/4/11 163/6/11 164/5/11
f 164/5/12 163/6/12 165/8/12
f 164/5/12 165/8/12 166/7/12
f 166/7/13 165/8/13 167/10/13
f 166/7/13 167/10/13 168/9/13
f 168/9/14 167/10/14 162/2/14
f 168/9/14 162/2/14 161/1/14
f 167/4/5 165/3/5 163/2/5
f 167/4/5 163/2/5 162/1/5
f 161/1/3 164/2/3 166/3/3
f 161/1/3 166/3/3 168/4/3
f 169/4/15 170/3/15 171/6/15
f 169/4/15 171/6/15 172/5/15
f 172/5/16 171/6/16 173/8/16
f 172/5/16 173/8/16 174/7/16
f 174/7/17 173/8/17 175/10/17
f 174/7/17 175/10/17 176/9/17
f 176/9/18 175/10/18 170/2/18
f 176/9/18 170/2/18 169/1/18
f 175/4/6 173/3/6 171/2/6
f 175/4/6 171/2/6 170/1/6
f 169/1/4 172/2/4 174/3/4
f 169/1/4 174/3/4 176/4/4
f 177/4/15 178/3/15 179/6/15
f 177/4/15 179/6/15 180/5/15
f 180/5/16 179/6/16 181/8/16
f 180/5/16 181/8/16 182/7/16
f 182/7/17 181/8/17 183/10/17
f 182/7/17 183/10/17 184/9/17
f 184/9/18 183/10/18 178/2/18
f 184/9/18 178/2/18 177/1/18
f 183/4/6 181/3/6 179/2/6
f 183/4/6 179/2/6 178/1/6
f 177/1/4 180/2/4 182/3/4
f 177/1/4 182/3/4 184/4/4
f 185/4/15 186/3/15 187/6/15
f 185/4/15 187/6/15 188/5/15
f 188/5/16 187/6/16 189/8/16
f 188/5/16 189/8/16 190/7/16
f 190/7/17 189/8/17 191/10/17
f 190/7/17 191/10/17 192/9/17
f 192/9/18 191/10/18 186/2/18
f 192/9/18 186/2/18 185/1/18
f 191/4/6 189/3/6 187/2/6
f 191/4/6 187/2/6 186/1/6
f 185/1/4 188/2/4 190/3/4
f 185/1/4 190/3/4 192/4/4
f 193/4/15 194/3/15 195/6/15
f 193/4/15 195/6/15 196/5/15
f 196/5/16 195/6/16 197/8/16
f 196/5/16 197/8/16 198/7/16
f 198/7/17 197/8/17 199/10/17
f 198/7/17 199/10/17 200/9/17
f 200/9/18 199/10/18 194/2/18
f 200/9/18 194/2/18 193/1/18
f 199/4/6 197/3/6 195/2/6
f 199/4/6 195/2/6 194/1/6
f 193/1/4 196/2/4 198/3/4
f 193/1/4 198/3/4 200/4/4
