v 0.8 4.2 0
v 0 5 0
v 0 5 0.76
v 0.8 4.2 0.76
v 0 5 1.2
v 0.8 4.2 1.2
v 0 5 3.8
v 0.8 4.2 3.8
v 0.8 4.2 4.18
v 0 5 4.18
v 0 5 5
v 0.8 4.2 5
v 1.2 3.8 0
v 1.2 3.8 0.76
v 1.01615 3.61615 0.76
v 0.616152 4.01615 0.76
v 0.616152 4.01615 1.2
v 1.01615 3.61615 1.2
v 1.2 3.8 1.2
v 1.2 3.8 3.8
v 1.2 3.8 4.18
v 1.2 3.8 5
v 1.01615 3.61615 3.8
v 0.616152 4.01615 3.8
v 0.616152 4.01615 4.18
v 1.01615 3.61615 4.18
v 3.8 1.2 0
v 3.8 1.2 0.76
v 3.8 1.2 1.2
v 3.8 1.2 3.8
v 3.8 1.2 4.18
v 3.8 1.2 5
v 4.2 0.799999 0.76
v 5 0 0.76
v 5 0 0
v 4.2 0.799999 0
v 4.2 0.799999 1.2
v 5 0 1.2
v 4.01615 0.616151 0.76
v 3.61615 1.01615 0.76
v 3.61615 1.01615 1.2
v 4.01615 0.616151 1.2
v 4.2 0.799999 3.8
v 5 0 3.8
v 4.2 0.799999 5
v 5 0 5
v 5 0 4.18
v 4.2 0.799999 4.18
v 4.01615 0.616151 3.8
v 3.61615 1.01615 3.8
v 3.61615 1.01615 4.18
v 4.01615 0.616151 4.18
v 0 0 0
v 0 0 5
vt 0 0
vn 0.707107 0.707107 0
vn 0 0 1
vn 0.707105 -0.707108 0
vn 0 0 -1
vn -0.707107 0.707107 -2.08408e-06
vn 0 -1 0
vn 0 0 0
vn -1 0 0
vn 1 0 0
vn -0.8 0 -0.6
vn -0.624695 0 0.780869
vn -0.447214 0 0.894427
vn -0.274721 0 -0.961524
vn 0 0 0
f 1//1 2//1 3//1
f 1//1 3//1 4//1
f 4//1 3//1 5//1
f 4//1 5//1 6//1
f 6//1 5//1 7//1
f 6//1 7//1 8//1
f 9//1 10//1 11//1
f 9//1 11//1 12//1
f 8//1 7//1 10//1
f 8//1 10//1 9//1
f 13//1 1//1 4//1
f 13//1 4//1 14//1
f 15//1 16//1 17//1
f 15//1 17//1 18//1
f 19//1 6//1 8//1
f 19//1 8//1 20//1
f 21//1 9//1 12//1
f 21//1 12//1 22//1
f 23//1 24//1 25//1
f 23//1 25//1 26//1
f 27//1 13//1 14//1
f 27//1 14//1 28//1
f 28//1 14//1 19//1
f 28//1 19//1 29//1
f 29//1 19//1 20//1
f 29//1 20//1 30//1
f 31//1 21//1 22//1
f 31//1 22//1 32//1
f 30//1 20//1 21//1
f 30//1 21//1 31//1
f 33//1 34//1 35//1
f 33//1 35//1 36//1
f 36//1 27//1 28//1
f 36//1 28//1 33//1
f 37//1 38//1 34//1
f 37//1 34//1 33//1
f 39//1 40//1 41//1
f 39//1 41//1 42//1
f 43//1 44//1 38//1
f 43//1 38//1 37//1
f 37//1 29//1 30//1
f 37//1 30//1 43//1
f 45//1 46//1 47//1
f 45//1 47//1 48//1
f 48//1 31//1 32//1
f 48//1 32//1 45//1
f 48//1 47//1 44//1
f 48//1 44//1 43//1
f 49//1 50//1 51//1
f 49//1 51//1 52//1
f 14//2 4//2 16//2
f 14//2 16//2 15//2
f 4//3 6//3 17//3
f 4//3 17//3 16//3
f 6//4 19//4 18//4
f 6//4 18//4 17//4
f 19//5 14//5 15//5
f 19//5 15//5 18//5
f 20//2 8//2 24//2
f 20//2 24//2 23//2
f 8//3 9//3 25//3
f 8//3 25//3 24//3
f 9//4 21//4 26//4
f 9//4 26//4 25//4
f 21//5 20//5 23//5
f 21//5 23//5 26//5
f 33//2 28//2 40//2
f 33//2 40//2 39//2
f 28//3 29//3 41//3
f 28//3 41//3 40//3
f 29//4 37//4 42//4
f 29//4 42//4 41//4
f 37//5 33//5 39//5
f 37//5 39//5 42//5
f 43//2 30//2 50//2
f 43//2 50//2 49//2
f 30//3 31//3 51//3
f 30//3 51//3 50//3
f 31//4 48//4 52//4
f 31//4 52//4 51//4
f 48//5 43//5 49//5
f 48//5 49//5 52//5
f 35//6 34//7 38//6
f 35//6 38//6 53//6
f 53//6 38//6 44//6
f 53//6 44//6 54//6
f 54//6 44//6 47//6
f 54//6 47//6 46//6
f 2//8 53//8 54//8
f 2//8 54//8 3//8
f 3//8 54//8 11//8
f 3//8 11//8 5//9
f 5//9 11//8 10//9
f 5//9 10//9 7//9
f 11//2 54//2 46//2
f 11//2 46//2 12//10
f 32//11 22//12 12//10
f 32//11 12//10 45//13
f 45//13 12//10 46//2
f 36//4 35//4 53//4
f 53//4 2//4 36//4
f 36//4 2//4 1//4
f 36//4 1//4 27//4
f 27//4 1//4 13//14
