v 0 0 0.8
v 0 0 0
v 0.8 0 0
v 0.8 0 0.8
v 0.8 5 0.8
v 0.8 5 0
v 0 5 0
v 0 5 0.8
v 1.2 0 0
v 1.2 0 0.799999
v 1.2 5 0.799999
v 1.2 5 0
v 3.8 0 0
v 3.8 0 0.799999
v 3.8 5 0.799999
v 3.8 5 0
v 4.2 0 0.799999
v 4.2 0 0
v 5 0 0
v 5 0 0.799999
v 5 5 0.799999
v 5 5 0
v 4.2 5 0
v 4.2 5 0.799999
v 0 0 1.18
v 0.8 0 1.18
v 0.8 5 1.18
v 0 5 1.18
v 0.8 0.18 1.18
v 0.8 0.18 0.8
v 1.2 0.18 0.799999
v 1.2 0.18 1.18
v 1.2 4.82 1.18
v 1.2 4.82 0.799999
v 0.8 4.82 0.8
v 0.8 4.82 1.18
v 1.2 0 1.18
v 3.8 0 1.18
v 3.8 5 1.18
v 1.2 5 1.18
v 4.2 0 1.18
v 5 0 1.18
v 3.8 0.18 1.18
v 3.8 0.18 0.799999
v 4.2 0.18 0.799999
v 4.2 0.18 1.18
v 5 5 1.18
v 4.2 5 1.18
v 4.2 4.82 1.18
v 4.2 4.82 0.799999
v 3.8 4.82 0.799999
v 3.8 4.82 1.18
v 0 0 3.8
v 0.8 0 3.8
v 0.8 5 3.8
v 0 5 3.8
v 1.2 0 3.8
v 1.2 5 3.8
v 3.8 0 3.8
v 3.8 5 3.8
v 4.2 0 3.8
v 5 0 3.8
v 5 5 3.8
v 4.2 5 3.8
v 0.8 0 4.2
v 0.8 0 5
v 0 0 5
v 0 0 4.2
v 0 5 4.2
v 0 5 5
v 0.8 5 5
v 0.8 5 4.2
v 1.2 0 4.2
v 1.2 0 5
v 0.8 0.18 4.2
v 0.8 0.18 3.8
v 1.2 0.18 3.8
v 1.2 0.18 4.2
v 1.2 5 5
v 1.2 5 4.2
v 1.2 4.82 4.2
v 1.2 4.82 3.8
v 0.8 4.82 3.8
v 0.8 4.82 4.2
v 3.8 0 4.2
v 3.8 0 5
v 3.8 5 5
v 3.8 5 4.2
v 5 0 4.2
v 5 0 5
v 4.2 0 5
v 4.2 0 4.2
v 3.8 0.18 4.2
v 3.8 0.18 3.8
v 4.2 0.18 3.8
v 4.2 0.18 4.2
v 4.2 5 4.2
v 4.2 5 5
v 5 5 5
v 5 5 4.2
v 4.2 4.82 4.2
v 4.2 4.82 3.8
v 3.8 4.82 3.8
v 3.8 4.82 4.2
v 0 0.78 5
v 0.8 0.78 5
v 0.8 0.78 0
v 0 0.78 0
v 1.2 0.78 5
v 1.2 0.78 0
v 3.8 0.78 5
v 3.8 0.78 0
v 4.2 0.78 5
v 5 0.78 5
v 5 0.78 0
v 4.2 0.78 0
v 5 0.78 0.799999
v 0 0.78 0.8
v 5 0.78 1.18
v 0 0.78 1.18
v 5 0.78 3.8
v 0 0.78 3.8
v 5 0.78 4.2
v 0 0.78 4.2
v 0 1.2 5
v 0.8 1.2 5
v 0.8 1.2 0
v 0 1.2 0
v 0.8 1.2 4.82
v 0.8 0.78 4.82
v 1.2 0.78 4.82
v 1.2 1.2 4.82
v 1.2 1.2 0.18
v 1.2 0.78 0.18
v 0.8 0.78 0.18
v 0.8 1.2 0.18
v 1.2 1.2 5
v 3.8 1.2 5
v 3.8 1.2 0
v 1.2 1.2 0
v 4.2 1.2 5
v 5 1.2 5
v 3.8 1.2 4.82
v 3.8 0.78 4.82
v 4.2 0.78 4.82
v 4.2 1.2 4.82
v 5 1.2 0
v 4.2 1.2 0
v 4.2 1.2 0.18
v 4.2 0.78 0.18
v 3.8 0.78 0.18
v 3.8 1.2 0.18
v 5 1.2 0.799999
v 0 1.2 0.8
v 4.82 1.2 1.18
v 4.82 0.78 1.18
v 4.82 0.78 0.799999
v 4.82 1.2 0.799999
v 0.18 1.2 0.8
v 0.18 0.78 0.8
v 0.18 0.78 1.18
v 0.18 1.2 1.18
v 5 1.2 3.8
v 5 1.2 1.18
v 0 1.2 1.18
v 0 1.2 3.8
v 5 1.2 4.2
v 4.82 1.2 4.2
v 4.82 0.78 4.2
v 4.82 0.78 3.8
v 4.82 1.2 3.8
v 0 1.2 4.2
v 0.18 1.2 3.8
v 0.18 0.78 3.8
v 0.18 0.78 4.2
v 0.18 1.2 4.2
v 0.8 4.2 5
v 0 4.2 5
v 0 4.2 0
v 0.8 4.2 0
v 1.2 4.2 5
v 1.2 4.2 0
v 3.8 4.2 5
v 3.8 4.2 0
v 5 4.2 5
v 4.2 4.2 5
v 4.2 4.2 0
v 5 4.2 0
v 5 4.2 0.799999
v 0 4.2 0.8
v 5 4.2 1.18
v 0 4.2 1.18
v 5 4.2 3.8
v 0 4.2 3.8
v 5 4.2 4.2
v 0 4.2 4.2
v 0 3.8 5
v 0.8 3.8 5
v 0.8 3.8 0
v 0 3.8 0
v 1.2 3.8 5
v 1.2 3.8 4.82
v 1.2 4.2 4.82
v 0.8 4.2 4.82
v 0.8 3.8 4.82
v 1.2 3.8 0
v 0.8 3.8 0.18
v 0.8 4.2 0.18
v 1.2 4.2 0.18
v 1.2 3.8 0.18
v 3.8 3.8 5
v 3.8 3.8 0
v 4.2 3.8 5
v 5 3.8 5
v 4.2 3.8 4.82
v 4.2 4.2 4.82
v 3.8 4.2 4.82
v 3.8 3.8 4.82
v 5 3.8 0
v 4.2 3.8 0
v 3.8 3.8 0.18
v 3.8 4.2 0.18
v 4.2 4.2 0.18
v 4.2 3.8 0.18
v 5 3.8 0.799999
v 0 3.8 0.8
v 5 3.8 1.18
v 4.82 3.8 0.799999
v 4.82 4.2 0.799999
v 4.82 4.2 1.18
v 4.82 3.8 1.18
v 0 3.8 1.18
v 0.18 3.8 1.18
v 0.18 4.2 1.18
v 0.18 4.2 0.8
v 0.18 3.8 0.8
v 5 3.8 3.8
v 0 3.8 3.8
v 5 3.8 4.2
v 4.82 3.8 3.8
v 4.82 4.2 3.8
v 4.82 4.2 4.2
v 4.82 3.8 4.2
v 0 3.8 4.2
v 0.18 3.8 4.2
v 0.18 4.2 4.2
v 0.18 4.2 3.8
v 0.18 3.8 3.8
vt 0 0
vn 0 -1 0
vn 0 1 0
vn 0 0 1
vn 0 0 -1
vn 1 0 0
vn -1 0 0
f 1/1/1 2/1/1 3/1/1
f 1/1/1 3/1/1 4/1/1
f 5/1/2 6/1/2 7/1/2
f 5/1/2 7/1/2 8/1/2
f 4/1/1 3/1/1 9/1/1
f 4/1/1 9/1/1 10/1/1
f 11/1/2 12/1/2 6/1/2
f 11/1/2 6/1/2 5/1/2
f 10/1/1 9/1/1 13/1/1
f 10/1/1 13/1/1 14/1/1
f 15/1/2 16/1/2 12/1/2
f 15/1/2 12/1/2 11/1/2
f 17/1/1 18/1/1 19/1/1
f 17/1/1 19/1/1 20/1/1
f 14/1/1 13/1/1 18/1/1
f 14/1/1 18/1/1 17/1/1
f 21/1/2 22/1/2 23/1/2
f 21/1/2 23/1/2 24/1/2
f 24/1/2 23/1/2 16/1/2
f 24/1/2 16/1/2 15/1/2
f 25/1/1 1/1/1 4/1/1
f 25/1/1 4/1/1 26/1/1
f 27/1/2 5/1/2 8/1/2
f 27/1/2 8/1/2 28/1/2
f 29/1/1 30/1/1 31/1/1
f 29/1/1 31/1/1 32/1/1
f 33/1/2 34/1/2 35/1/2
f 33/1/2 35/1/2 36/1/2
f 37/1/1 10/1/1 14/1/1
f 37/1/1 14/1/1 38/1/1
f 39/1/2 15/1/2 11/1/2
f 39/1/2 11/1/2 40/1/2
f 41/1/1 17/1/1 20/1/1
f 41/1/1 20/1/1 42/1/1
f 43/1/1 44/1/1 45/1/1
f 43/1/1 45/1/1 46/1/1
f 47/1/2 21/1/2 24/1/2
f 47/1/2 24/1/2 48/1/2
f 49/1/2 50/1/2 51/1/2
f 49/1/2 51/1/2 52/1/2
f 53/1/1 25/1/1 26/1/1
f 53/1/1 26/1/1 54/1/1
f 55/1/2 27/1/2 28/1/2
f 55/1/2 28/1/2 56/1/2
f 54/1/1 26/1/1 37/1/1
f 54/1/1 37/1/1 57/1/1
f 58/1/2 40/1/2 27/1/2
f 58/1/2 27/1/2 55/1/2
f 57/1/1 37/1/1 38/1/1
f 57/1/1 38/1/1 59/1/1
f 60/1/2 39/1/2 40/1/2
f 60/1/2 40/1/2 58/1/2
f 61/1/1 41/1/1 42/1/1
f 61/1/1 42/1/1 62/1/1
f 59/1/1 38/1/1 41/1/1
f 59/1/1 41/1/1 61/1/1
f 63/1/2 47/1/2 48/1/2
f 63/1/2 48/1/2 64/1/2
f 64/1/2 48/1/2 39/1/2
f 64/1/2 39/1/2 60/1/2
f 65/1/1 66/1/1 67/1/1
f 65/1/1 67/1/1 68/1/1
f 68/1/1 53/1/1 54/1/1
f 68/1/1 54/1/1 65/1/1
f 69/1/2 70/1/2 71/1/2
f 69/1/2 71/1/2 72/1/2
f 72/1/2 55/1/2 56/1/2
f 72/1/2 56/1/2 69/1/2
f 73/1/1 74/1/1 66/1/1
f 73/1/1 66/1/1 65/1/1
f 75/1/1 76/1/1 77/1/1
f 75/1/1 77/1/1 78/1/1
f 72/1/2 71/1/2 79/1/2
f 72/1/2 79/1/2 80/1/2
f 81/1/2 82/1/2 83/1/2
f 81/1/2 83/1/2 84/1/2
f 85/1/1 86/1/1 74/1/1
f 85/1/1 74/1/1 73/1/1
f 73/1/1 57/1/1 59/1/1
f 73/1/1 59/1/1 85/1/1
f 80/1/2 79/1/2 87/1/2
f 80/1/2 87/1/2 88/1/2
f 88/1/2 60/1/2 58/1/2
f 88/1/2 58/1/2 80/1/2
f 89/1/1 90/1/1 91/1/1
f 89/1/1 91/1/1 92/1/1
f 92/1/1 61/1/1 62/1/1
f 92/1/1 62/1/1 89/1/1
f 92/1/1 91/1/1 86/1/1
f 92/1/1 86/1/1 85/1/1
f 93/1/1 94/1/1 95/1/1
f 93/1/1 95/1/1 96/1/1
f 97/1/2 98/1/2 99/1/2
f 97/1/2 99/1/2 100/1/2
f 100/1/2 63/1/2 64/1/2
f 100/1/2 64/1/2 97/1/2
f 88/1/2 87/1/2 98/1/2
f 88/1/2 98/1/2 97/1/2
f 101/1/2 102/1/2 103/1/2
f 101/1/2 103/1/2 104/1/2
f 105/1/3 67/1/3 66/1/3
f 105/1/3 66/1/3 106/1/3
f 107/1/4 3/1/4 2/1/4
f 107/1/4 2/1/4 108/1/4
f 106/1/3 66/1/3 74/1/3
f 106/1/3 74/1/3 109/1/3
f 110/1/4 9/1/4 3/1/4
f 110/1/4 3/1/4 107/1/4
f 109/1/3 74/1/3 86/1/3
f 109/1/3 86/1/3 111/1/3
f 112/1/4 13/1/4 9/1/4
f 112/1/4 9/1/4 110/1/4
f 113/1/3 91/1/3 90/1/3
f 113/1/3 90/1/3 114/1/3
f 111/1/3 86/1/3 91/1/3
f 111/1/3 91/1/3 113/1/3
f 115/1/4 19/1/4 18/1/4
f 115/1/4 18/1/4 116/1/4
f 116/1/4 18/1/4 13/1/4
f 116/1/4 13/1/4 112/1/4
f 117/1/5 20/1/5 19/1/5
f 117/1/5 19/1/5 115/1/5
f 108/1/6 2/1/6 1/1/6
f 108/1/6 1/1/6 118/1/6
f 119/1/5 42/1/5 20/1/5
f 119/1/5 20/1/5 117/1/5
f 118/1/6 1/1/6 25/1/6
f 118/1/6 25/1/6 120/1/6
f 121/1/5 62/1/5 42/1/5
f 121/1/5 42/1/5 119/1/5
f 120/1/6 25/1/6 53/1/6
f 120/1/6 53/1/6 122/1/6
f 114/1/5 90/1/5 89/1/5
f 114/1/5 89/1/5 123/1/5
f 123/1/5 89/1/5 62/1/5
f 123/1/5 62/1/5 121/1/5
f 124/1/6 68/1/6 67/1/6
f 124/1/6 67/1/6 105/1/6
f 122/1/6 53/1/6 68/1/6
f 122/1/6 68/1/6 124/1/6
f 125/1/3 105/1/3 106/1/3
f 125/1/3 106/1/3 126/1/3
f 127/1/4 107/1/4 108/1/4
f 127/1/4 108/1/4 128/1/4
f 129/1/3 130/1/3 131/1/3
f 129/1/3 131/1/3 132/1/3
f 133/1/4 134/1/4 135/1/4
f 133/1/4 135/1/4 136/1/4
f 137/1/3 109/1/3 111/1/3
f 137/1/3 111/1/3 138/1/3
f 139/1/4 112/1/4 110/1/4
f 139/1/4 110/1/4 140/1/4
f 141/1/3 113/1/3 114/1/3
f 141/1/3 114/1/3 142/1/3
f 143/1/3 144/1/3 145/1/3
f 143/1/3 145/1/3 146/1/3
f 147/1/4 115/1/4 116/1/4
f 147/1/4 116/1/4 148/1/4
f 149/1/4 150/1/4 151/1/4
f 149/1/4 151/1/4 152/1/4
f 153/1/5 117/1/5 115/1/5
f 153/1/5 115/1/5 147/1/5
f 128/1/6 108/1/6 118/1/6
f 128/1/6 118/1/6 154/1/6
f 155/1/5 156/1/5 157/1/5
f 155/1/5 157/1/5 158/1/5
f 159/1/6 160/1/6 161/1/6
f 159/1/6 161/1/6 162/1/6
f 163/1/5 121/1/5 119/1/5
f 163/1/5 119/1/5 164/1/5
f 165/1/6 120/1/6 122/1/6
f 165/1/6 122/1/6 166/1/6
f 142/1/5 114/1/5 123/1/5
f 142/1/5 123/1/5 167/1/5
f 168/1/5 169/1/5 170/1/5
f 168/1/5 170/1/5 171/1/5
f 172/1/6 124/1/6 105/1/6
f 172/1/6 105/1/6 125/1/6
f 173/1/6 174/1/6 175/1/6
f 173/1/6 175/1/6 176/1/6
f 177/1/3 71/1/3 70/1/3
f 177/1/3 70/1/3 178/1/3
f 179/1/4 7/1/4 6/1/4
f 179/1/4 6/1/4 180/1/4
f 181/1/3 79/1/3 71/1/3
f 181/1/3 71/1/3 177/1/3
f 180/1/4 6/1/4 12/1/4
f 180/1/4 12/1/4 182/1/4
f 183/1/3 87/1/3 79/1/3
f 183/1/3 79/1/3 181/1/3
f 182/1/4 12/1/4 16/1/4
f 182/1/4 16/1/4 184/1/4
f 185/1/3 99/1/3 98/1/3
f 185/1/3 98/1/3 186/1/3
f 186/1/3 98/1/3 87/1/3
f 186/1/3 87/1/3 183/1/3
f 187/1/4 23/1/4 22/1/4
f 187/1/4 22/1/4 188/1/4
f 184/1/4 16/1/4 23/1/4
f 184/1/4 23/1/4 187/1/4
f 188/1/5 22/1/5 21/1/5
f 188/1/5 21/1/5 189/1/5
f 190/1/6 8/1/6 7/1/6
f 190/1/6 7/1/6 179/1/6
f 189/1/5 21/1/5 47/1/5
f 189/1/5 47/1/5 191/1/5
f 192/1/6 28/1/6 8/1/6
f 192/1/6 8/1/6 190/1/6
f 191/1/5 47/1/5 63/1/5
f 191/1/5 63/1/5 193/1/5
f 194/1/6 56/1/6 28/1/6
f 194/1/6 28/1/6 192/1/6
f 195/1/5 100/1/5 99/1/5
f 195/1/5 99/1/5 185/1/5
f 193/1/5 63/1/5 100/1/5
f 193/1/5 100/1/5 195/1/5
f 178/1/6 70/1/6 69/1/6
f 178/1/6 69/1/6 196/1/6
f 196/1/6 69/1/6 56/1/6
f 196/1/6 56/1/6 194/1/6
f 197/1/3 125/1/3 126/1/3
f 197/1/3 126/1/3 198/1/3
f 198/1/3 177/1/3 178/1/3
f 198/1/3 178/1/3 197/1/3
f 199/1/4 127/1/4 128/1/4
f 199/1/4 128/1/4 200/1/4
f 200/1/4 179/1/4 180/1/4
f 200/1/4 180/1/4 199/1/4
f 198/1/3 126/1/3 137/1/3
f 198/1/3 137/1/3 201/1/3
f 202/1/3 203/1/3 204/1/3
f 202/1/3 204/1/3 205/1/3
f 206/1/4 140/1/4 127/1/4
f 206/1/4 127/1/4 199/1/4
f 207/1/4 208/1/4 209/1/4
f 207/1/4 209/1/4 210/1/4
f 201/1/3 137/1/3 138/1/3
f 201/1/3 138/1/3 211/1/3
f 211/1/3 183/1/3 181/1/3
f 211/1/3 181/1/3 201/1/3
f 212/1/4 139/1/4 140/1/4
f 212/1/4 140/1/4 206/1/4
f 206/1/4 182/1/4 184/1/4
f 206/1/4 184/1/4 212/1/4
f 213/1/3 141/1/3 142/1/3
f 213/1/3 142/1/3 214/1/3
f 214/1/3 185/1/3 186/1/3
f 214/1/3 186/1/3 213/1/3
f 211/1/3 138/1/3 141/1/3
f 211/1/3 141/1/3 213/1/3
f 215/1/3 216/1/3 217/1/3
f 215/1/3 217/1/3 218/1/3
f 219/1/4 147/1/4 148/1/4
f 219/1/4 148/1/4 220/1/4
f 220/1/4 187/1/4 188/1/4
f 220/1/4 188/1/4 219/1/4
f 220/1/4 148/1/4 139/1/4
f 220/1/4 139/1/4 212/1/4
f 221/1/4 222/1/4 223/1/4
f 221/1/4 223/1/4 224/1/4
f 225/1/5 153/1/5 147/1/5
f 225/1/5 147/1/5 219/1/5
f 219/1/5 188/1/5 189/1/5
f 219/1/5 189/1/5 225/1/5
f 200/1/6 128/1/6 154/1/6
f 200/1/6 154/1/6 226/1/6
f 226/1/6 190/1/6 179/1/6
f 226/1/6 179/1/6 200/1/6
f 227/1/5 164/1/5 153/1/5
f 227/1/5 153/1/5 225/1/5
f 228/1/5 229/1/5 230/1/5
f 228/1/5 230/1/5 231/1/5
f 226/1/6 154/1/6 165/1/6
f 226/1/6 165/1/6 232/1/6
f 233/1/6 234/1/6 235/1/6
f 233/1/6 235/1/6 236/1/6
f 237/1/5 163/1/5 164/1/5
f 237/1/5 164/1/5 227/1/5
f 227/1/5 191/1/5 193/1/5
f 227/1/5 193/1/5 237/1/5
f 232/1/6 165/1/6 166/1/6
f 232/1/6 166/1/6 238/1/6
f 238/1/6 194/1/6 192/1/6
f 238/1/6 192/1/6 232/1/6
f 214/1/5 142/1/5 167/1/5
f 214/1/5 167/1/5 239/1/5
f 239/1/5 195/1/5 185/1/5
f 239/1/5 185/1/5 214/1/5
f 239/1/5 167/1/5 163/1/5
f 239/1/5 163/1/5 237/1/5
f 240/1/5 241/1/5 242/1/5
f 240/1/5 242/1/5 243/1/5
f 244/1/6 172/1/6 125/1/6
f 244/1/6 125/1/6 197/1/6
f 197/1/6 178/1/6 196/1/6
f 197/1/6 196/1/6 244/1/6
f 238/1/6 166/1/6 172/1/6
f 238/1/6 172/1/6 244/1/6
f 245/1/6 246/1/6 247/1/6
f 245/1/6 247/1/6 248/1/6
f 26/1/5 4/1/5 30/1/5
f 26/1/5 30/1/5 29/1/5
f 4/1/3 10/1/3 31/1/3
f 4/1/3 31/1/3 30/1/3
f 10/1/6 37/1/6 32/1/6
f 10/1/6 32/1/6 31/1/6
f 37/1/4 26/1/4 29/1/4
f 37/1/4 29/1/4 32/1/4
f 40/1/6 11/1/6 34/1/6
f 40/1/6 34/1/6 33/1/6
f 11/1/3 5/1/3 35/1/3
f 11/1/3 35/1/3 34/1/3
f 5/1/5 27/1/5 36/1/5
f 5/1/5 36/1/5 35/1/5
f 27/1/4 40/1/4 33/1/4
f 27/1/4 33/1/4 36/1/4
f 38/1/5 14/1/5 44/1/5
f 38/1/5 44/1/5 43/1/5
f 14/1/3 17/1/3 45/1/3
f 14/1/3 45/1/3 44/1/3
f 17/1/6 41/1/6 46/1/6
f 17/1/6 46/1/6 45/1/6
f 41/1/4 38/1/4 43/1/4
f 41/1/4 43/1/4 46/1/4
f 48/1/6 24/1/6 50/1/6
f 48/1/6 50/1/6 49/1/6
f 24/1/3 15/1/3 51/1/3
f 24/1/3 51/1/3 50/1/3
f 15/1/5 39/1/5 52/1/5
f 15/1/5 52/1/5 51/1/5
f 39/1/4 48/1/4 49/1/4
f 39/1/4 49/1/4 52/1/4
f 65/1/5 54/1/5 76/1/5
f 65/1/5 76/1/5 75/1/5
f 54/1/3 57/1/3 77/1/3
f 54/1/3 77/1/3 76/1/3
f 57/1/6 73/1/6 78/1/6
f 57/1/6 78/1/6 77/1/6
f 73/1/4 65/1/4 75/1/4
f 73/1/4 75/1/4 78/1/4
f 80/1/6 58/1/6 82/1/6
f 80/1/6 82/1/6 81/1/6
f 58/1/3 55/1/3 83/1/3
f 58/1/3 83/1/3 82/1/3
f 55/1/5 72/1/5 84/1/5
f 55/1/5 84/1/5 83/1/5
f 72/1/4 80/1/4 81/1/4
f 72/1/4 81/1/4 84/1/4
f 85/1/5 59/1/5 94/1/5
f 85/1/5 94/1/5 93/1/5
f 59/1/3 61/1/3 95/1/3
f 59/1/3 95/1/3 94/1/3
f 61/1/6 92/1/6 96/1/6
f 61/1/6 96/1/6 95/1/6
f 92/1/4 85/1/4 93/1/4
f 92/1/4 93/1/4 96/1/4
f 97/1/6 64/1/6 102/1/6
f 97/1/6 102/1/6 101/1/6
f 64/1/3 60/1/3 103/1/3
f 64/1/3 103/1/3 102/1/3
f 60/1/5 88/1/5 104/1/5
f 60/1/5 104/1/5 103/1/5
f 88/1/4 97/1/4 101/1/4
f 88/1/4 101/1/4 104/1/4
f 126/1/5 106/1/5 130/1/5
f 126/1/5 130/1/5 129/1/5
f 106/1/2 109/1/2 131/1/2
f 106/1/2 131/1/2 130/1/2
f 109/1/6 137/1/6 132/1/6
f 109/1/6 132/1/6 131/1/6
f 137/1/1 126/1/1 129/1/1
f 137/1/1 129/1/1 132/1/1
f 140/1/6 110/1/6 134/1/6
f 140/1/6 134/1/6 133/1/6
f 110/1/2 107/1/2 135/1/2
f 110/1/2 135/1/2 134/1/2
f 107/1/5 127/1/5 136/1/5
f 107/1/5 136/1/5 135/1/5
f 127/1/1 140/1/1 133/1/1
f 127/1/1 133/1/1 136/1/1
f 138/1/5 111/1/5 144/1/5
f 138/1/5 144/1/5 143/1/5
f 111/1/2 113/1/2 145/1/2
f 111/1/2 145/1/2 144/1/2
f 113/1/6 141/1/6 146/1/6
f 113/1/6 146/1/6 145/1/6
f 141/1/1 138/1/1 143/1/1
f 141/1/1 143/1/1 146/1/1
f 148/1/6 116/1/6 150/1/6
f 148/1/6 150/1/6 149/1/6
f 116/1/2 112/1/2 151/1/2
f 116/1/2 151/1/2 150/1/2
f 112/1/5 139/1/5 152/1/5
f 112/1/5 152/1/5 151/1/5
f 139/1/1 148/1/1 149/1/1
f 139/1/1 149/1/1 152/1/1
f 164/1/4 119/1/4 156/1/4
f 164/1/4 156/1/4 155/1/4
f 119/1/2 117/1/2 157/1/2
f 119/1/2 157/1/2 156/1/2
f 117/1/3 153/1/3 158/1/3
f 117/1/3 158/1/3 157/1/3
f 153/1/1 164/1/1 155/1/1
f 153/1/1 155/1/1 158/1/1
f 154/1/3 118/1/3 160/1/3
f 154/1/3 160/1/3 159/1/3
f 118/1/2 120/1/2 161/1/2
f 118/1/2 161/1/2 160/1/2
f 120/1/4 165/1/4 162/1/4
f 120/1/4 162/1/4 161/1/4
f 165/1/1 154/1/1 159/1/1
f 165/1/1 159/1/1 162/1/1
f 167/1/4 123/1/4 169/1/4
f 167/1/4 169/1/4 168/1/4
f 123/1/2 121/1/2 170/1/2
f 123/1/2 170/1/2 169/1/2
f 121/1/3 163/1/3 171/1/3
f 121/1/3 171/1/3 170/1/3
f 163/1/1 167/1/1 168/1/1
f 163/1/1 168/1/1 171/1/1
f 166/1/3 122/1/3 174/1/3
f 166/1/3 174/1/3 173/1/3
f 122/1/2 124/1/2 175/1/2
f 122/1/2 175/1/2 174/1/2
f 124/1/4 172/1/4 176/1/4
f 124/1/4 176/1/4 175/1/4
f 172/1/1 166/1/1 173/1/1
f 172/1/1 173/1/1 176/1/1
f 201/1/6 181/1/6 203/1/6
f 201/1/6 203/1/6 202/1/6
f 181/1/1 177/1/1 204/1/1
f 181/1/1 204/1/1 203/1/1
f 177/1/5 198/1/5 205/1/5
f 177/1/5 205/1/5 204/1/5
f 198/1/2 201/1/2 202/1/2
f 198/1/2 202/1/2 205/1/2
f 199/1/5 180/1/5 208/1/5
f 199/1/5 208/1/5 207/1/5
f 180/1/1 182/1/1 209/1/1
f 180/1/1 209/1/1 208/1/1
f 182/1/6 206/1/6 210/1/6
f 182/1/6 210/1/6 209/1/6
f 206/1/2 199/1/2 207/1/2
f 206/1/2 207/1/2 210/1/2
f 213/1/6 186/1/6 216/1/6
f 213/1/6 216/1/6 215/1/6
f 186/1/1 183/1/1 217/1/1
f 186/1/1 217/1/1 216/1/1
f 183/1/5 211/1/5 218/1/5
f 183/1/5 218/1/5 217/1/5
f 211/1/2 213/1/2 215/1/2
f 211/1/2 215/1/2 218/1/2
f 212/1/5 184/1/5 222/1/5
f 212/1/5 222/1/5 221/1/5
f 184/1/1 187/1/1 223/1/1
f 184/1/1 223/1/1 222/1/1
f 187/1/6 220/1/6 224/1/6
f 187/1/6 224/1/6 223/1/6
f 220/1/2 212/1/2 221/1/2
f 220/1/2 221/1/2 224/1/2
f 225/1/3 189/1/3 229/1/3
f 225/1/3 229/1/3 228/1/3
f 189/1/1 191/1/1 230/1/1
f 189/1/1 230/1/1 229/1/1
f 191/1/4 227/1/4 231/1/4
f 191/1/4 231/1/4 230/1/4
f 227/1/2 225/1/2 228/1/2
f 227/1/2 228/1/2 231/1/2
f 232/1/4 192/1/4 234/1/4
f 232/1/4 234/1/4 233/1/4
f 192/1/1 190/1/1 235/1/1
f 192/1/1 235/1/1 234/1/1
f 190/1/3 226/1/3 236/1/3
f 190/1/3 236/1/3 235/1/3
f 226/1/2 232/1/2 233/1/2
f 226/1/2 233/1/2 236/1/2
f 237/1/3 193/1/3 241/1/3
f 237/1/3 241/1/3 240/1/3
f 193/1/1 195/1/1 242/1/1
f 193/1/1 242/1/1 241/1/1
f 195/1/4 239/1/4 243/1/4
f 195/1/4 243/1/4 242/1/4
f 239/1/2 237/1/2 240/1/2
f 239/1/2 240/1/2 243/1/2
f 244/1/4 196/1/4 246/1/4
f 244/1/4 246/1/4 245/1/4
f 196/1/1 194/1/1 247/1/1
f 196/1/1 247/1/1 246/1/1
f 194/1/3 238/1/3 248/1/3
f 194/1/3 248/1/3 247/1/3
f 238/1/2 244/1/2 245/1/2
f 238/1/2 245/1/2 248/1/2
