# RokuSuper Output Ver2.0 for Wavefront Obj

v 0.00000000 0.00000000 5.00000000
v 0.00000000 0.00000000 0.00000000
v 5.00000000 5.00000000 0.00000000
v 5.00000000 0.00000000 0.00000000

vn -0.70710678 0.70710678 0.00000000
vn -0.70710678 0.70710678 0.00000000
vn -0.70710678 0.70710678 0.00000000
vn 0.00000000 0.00000000 -1.00000000
vn 0.00000000 0.00000000 -1.00000000
vn 0.00000000 0.00000000 -1.00000000
vn 0.00000000 -1.00000000 0.00000000
vn 0.00000000 -1.00000000 0.00000000
vn 0.00000000 -1.00000000 0.00000000
vn 0.70710678 0.00000000 0.70710678
vn 0.70710678 0.00000000 0.70710678
vn 0.70710678 0.00000000 0.70710678

g ²ã
f 3//1 2//2 1//3
f 2//4 3//5 4//6
f 1//7 2//8 4//9
f 3//10 1//11 4//12

